<?xml version="1.0" encoding="UTF-8" standalone="no"?>
<svg xmlns="http://www.w3.org/2000/svg" xmlns:xlink="http://www.w3.org/1999/xlink" contentScriptType="application/ecmascript" contentStyleType="text/css" height="576px" preserveAspectRatio="none" style="width:211px;height:576px;" version="1.1" viewBox="0 0 211 576" width="211px" zoomAndPan="magnify"><defs><filter height="300%" id="f1xuwvyncci49u" width="300%" x="-1" y="-1"><feGaussianBlur result="blurOut" stdDeviation="2.0"/><feColorMatrix in="blurOut" result="blurOut2" type="matrix" values="0 0 0 0 0 0 0 0 0 0 0 0 0 0 0 0 0 0 .4 0"/><feOffset dx="4.0" dy="4.0" in="blurOut2" result="blurOut3"/><feBlend in="SourceGraphic" in2="blurOut3" mode="normal"/></filter></defs><g><ellipse cx="54.5" cy="18" fill="#000000" filter="url(#f1xuwvyncci49u)" rx="10" ry="10" style="stroke: none; stroke-width: 1.0;"/><rect fill="#FEFECE" filter="url(#f1xuwvyncci49u)" height="40" rx="12.5" ry="12.5" style="stroke: #A80036; stroke-width: 1.5;" width="77" x="16" y="102"/><text fill="#000000" font-family="sans-serif" font-size="14" lengthAdjust="spacingAndGlyphs" textLength="67" x="21" y="126.8467">CREATED</text><rect fill="#FEFECE" filter="url(#f1xuwvyncci49u)" height="40" rx="12.5" ry="12.5" style="stroke: #A80036; stroke-width: 1.5;" width="67" x="21" y="216"/><text fill="#000000" font-family="sans-serif" font-size="14" lengthAdjust="spacingAndGlyphs" textLength="57" x="26" y="240.8467">PAUSED</text><rect fill="#FEFECE" filter="url(#f1xuwvyncci49u)" height="40" rx="12.5" ry="12.5" style="stroke: #A80036; stroke-width: 1.5;" width="97" x="6" y="330"/><text fill="#000000" font-family="sans-serif" font-size="14" lengthAdjust="spacingAndGlyphs" textLength="87" x="11" y="354.8467">COMPLETED</text><rect fill="#FEFECE" filter="url(#f1xuwvyncci49u)" height="40" rx="12.5" ry="12.5" style="stroke: #A80036; stroke-width: 1.5;" width="51" x="29" y="444"/><text fill="#000000" font-family="sans-serif" font-size="14" lengthAdjust="spacingAndGlyphs" textLength="41" x="34" y="468.8467">DONE</text><ellipse cx="54.5" cy="555" fill="none" filter="url(#f1xuwvyncci49u)" rx="10" ry="10" style="stroke: #000000; stroke-width: 1.0;"/><ellipse cx="55" cy="555.5" fill="#000000" rx="6" ry="6" style="stroke: none; stroke-width: 1.0;"/><!--MD5=[92e73ed3c233abf4de5b14700e30a712]
link *start to CREATED--><path d="M54.5,28.052 C54.5,43.308 54.5,74.634 54.5,96.689 " fill="none" id="*start-&gt;CREATED" style="stroke: #A80036; stroke-width: 1.0;"/><polygon fill="#A80036" points="54.5,101.801,58.5,92.801,54.5,96.801,50.5,92.801,54.5,101.801" style="stroke: #A80036; stroke-width: 1.0;"/><text fill="#000000" font-family="monospace" font-size="13" font-style="italic" lengthAdjust="spacingAndGlyphs" textLength="112" x="55.5" y="71.1996">initialisation</text><!--MD5=[0989984ff2cd88f2e5ce608ed738f6b6]
link CREATED to PAUSED--><path d="M54.5,142.253 C54.5,161.28 54.5,190.441 54.5,210.975 " fill="none" id="CREATED-&gt;PAUSED" style="stroke: #A80036; stroke-width: 1.0;"/><polygon fill="#A80036" points="54.5,215.998,58.5,206.998,54.5,210.998,50.5,206.998,54.5,215.998" style="stroke: #A80036; stroke-width: 1.0;"/><text fill="#000000" font-family="monospace" font-size="13" lengthAdjust="spacingAndGlyphs" textLength="96" x="55.5" y="185.1996">execute(...)</text><!--MD5=[7747d243bc57dec8567856a9395e08ed]
link PAUSED to COMPLETED--><path d="M54.5,256.253 C54.5,275.28 54.5,304.441 54.5,324.975 " fill="none" id="PAUSED-&gt;COMPLETED" style="stroke: #A80036; stroke-width: 1.0;"/><polygon fill="#A80036" points="54.5,329.998,58.5,320.998,54.5,324.998,50.5,320.998,54.5,329.998" style="stroke: #A80036; stroke-width: 1.0;"/><text fill="#000000" font-family="monospace" font-size="13" font-style="italic" lengthAdjust="spacingAndGlyphs" textLength="144" x="55.5" y="299.1996">promise completion</text><!--MD5=[596d02cfefe9d6dbcb3abaa6c2f71551]
link COMPLETED to DONE--><path d="M54.5,370.253 C54.5,389.28 54.5,418.441 54.5,438.975 " fill="none" id="COMPLETED-&gt;DONE" style="stroke: #A80036; stroke-width: 1.0;"/><polygon fill="#A80036" points="54.5,443.998,58.5,434.998,54.5,438.998,50.5,434.998,54.5,443.998" style="stroke: #A80036; stroke-width: 1.0;"/><text fill="#000000" font-family="monospace" font-size="13" lengthAdjust="spacingAndGlyphs" textLength="96" x="55.5" y="413.1996">execute(...)</text><!--MD5=[ad73474698e21005f8a0eea3080e5769]
link DONE to *end--><path d="M54.5,484.3117 C54.5,500.8855 54.5,524.4101 54.5,539.4385 " fill="none" id="DONE-&gt;*end" style="stroke: #A80036; stroke-width: 1.0;"/><polygon fill="#A80036" points="54.5,544.5623,58.5,535.5623,54.5,539.5623,50.5,535.5623,54.5,544.5623" style="stroke: #A80036; stroke-width: 1.0;"/><!--MD5=[887d3bdc7ba42a9953a962405dca9851]
@startuml
hide empty description

[*] - -> CREATED: //""initialisation""//
CREATED - -> PAUSED: ""execute(...)""
PAUSED - -> COMPLETED: ""//promise completion//""
COMPLETED - -> DONE: ""execute(...)""
DONE - -> [*]
@enduml

PlantUML version 1.2019.12(Sun Nov 03 10:24:54 UTC 2019)
(GPL source distribution)
Java Runtime: Java(TM) SE Runtime Environment
JVM: Java HotSpot(TM) 64-Bit Server VM
Java Version: 1.7.0_25-b15
Operating System: Linux
Default Encoding: UTF-8
Language: en
Country: US
--></g></svg>