<?xml version="1.0" encoding="UTF-8" standalone="no"?>
<!-- Generator: Adobe Illustrator 19.0.0, SVG Export Plug-In . SVG Version: 6.00 Build 0)  -->

<svg
   xmlns:dc="http://purl.org/dc/elements/1.1/"
   xmlns:cc="http://creativecommons.org/ns#"
   xmlns:rdf="http://www.w3.org/1999/02/22-rdf-syntax-ns#"
   xmlns:svg="http://www.w3.org/2000/svg"
   xmlns="http://www.w3.org/2000/svg"
   xmlns:sodipodi="http://sodipodi.sourceforge.net/DTD/sodipodi-0.dtd"
   xmlns:inkscape="http://www.inkscape.org/namespaces/inkscape"
   version="1.1"
   id="Layer_1"
   x="0px"
   y="0px"
   viewBox="0 0 964.9552 471.00195"
   xml:space="preserve"
   sodipodi:docname="blackboard.svg"
   inkscape:version="0.92.3 (2405546, 2018-03-11)"
   width="964.9552"
   height="471.00195"><metadata
   id="metadata164"><rdf:RDF><cc:Work
       rdf:about=""><dc:format>image/svg+xml</dc:format><dc:type
         rdf:resource="http://purl.org/dc/dcmitype/StillImage" /><dc:title /></cc:Work></rdf:RDF></metadata><defs
   id="defs162"><marker
   inkscape:isstock="true"
   style="overflow:visible;"
   id="marker5666"
   refX="0.0"
   refY="0.0"
   orient="auto"
   inkscape:stockid="Arrow2Lend"><path
     transform="scale(1.1) rotate(180) translate(1,0)"
     d="M 8.7185878,4.0337352 L -2.2072895,0.016013256 L 8.7185884,-4.0017078 C 6.9730900,-1.6296469 6.9831476,1.6157441 8.7185878,4.0337352 z "
     style="fill-rule:evenodd;stroke-width:0.625;stroke-linejoin:round;stroke:#00aad4;stroke-opacity:1;fill:#00aad4;fill-opacity:1"
     id="path5664" /></marker><marker
   inkscape:stockid="Arrow1Lend"
   orient="auto"
   refY="0.0"
   refX="0.0"
   id="Arrow1Lend"
   style="overflow:visible;"
   inkscape:isstock="true"><path
     id="path5197"
     d="M 0.0,0.0 L 5.0,-5.0 L -12.5,0.0 L 5.0,5.0 L 0.0,0.0 z "
     style="fill-rule:evenodd;stroke:#000000;stroke-width:1pt;stroke-opacity:1;fill:#000000;fill-opacity:1"
     transform="scale(0.8) rotate(180) translate(12.5,0)" /></marker>
	
	
	
	
	
	

		
		
		
		
	</defs><sodipodi:namedview
   pagecolor="#ffffff"
   bordercolor="#666666"
   borderopacity="1"
   objecttolerance="10"
   gridtolerance="10"
   guidetolerance="10"
   inkscape:pageopacity="0"
   inkscape:pageshadow="2"
   inkscape:window-width="1920"
   inkscape:window-height="1145"
   id="namedview160"
   showgrid="false"
   showguides="true"
   inkscape:guide-bbox="true"
   inkscape:snap-bbox="true"
   inkscape:bbox-paths="true"
   inkscape:bbox-nodes="true"
   inkscape:snap-bbox-edge-midpoints="true"
   inkscape:snap-bbox-midpoints="true"
   inkscape:object-paths="true"
   inkscape:snap-intersection-paths="true"
   inkscape:snap-smooth-nodes="true"
   inkscape:snap-midpoints="true"
   inkscape:snap-object-midpoints="true"
   inkscape:snap-center="true"
   inkscape:snap-text-baseline="true"
   inkscape:zoom="0.96015937"
   inkscape:cx="370.81605"
   inkscape:cy="199.59773"
   inkscape:window-x="1280"
   inkscape:window-y="27"
   inkscape:window-maximized="1"
   inkscape:current-layer="Layer_1"
   fit-margin-top="0"
   fit-margin-left="0"
   fit-margin-right="0"
   fit-margin-bottom="0" />

<g
   id="g129"
   transform="translate(223.16054,-15.499)">
</g>
<g
   id="g131"
   transform="translate(223.16054,-15.499)">
</g>
<g
   id="g133"
   transform="translate(223.16054,-15.499)">
</g>
<g
   id="g135"
   transform="translate(223.16054,-15.499)">
</g>
<g
   id="g137"
   transform="translate(223.16054,-15.499)">
</g>
<g
   id="g139"
   transform="translate(223.16054,-15.499)">
</g>
<g
   id="g141"
   transform="translate(223.16054,-15.499)">
</g>
<g
   id="g143"
   transform="translate(223.16054,-15.499)">
</g>
<g
   id="g145"
   transform="translate(223.16054,-15.499)">
</g>
<g
   id="g147"
   transform="translate(223.16054,-15.499)">
</g>
<g
   id="g149"
   transform="translate(223.16054,-15.499)">
</g>
<g
   id="g151"
   transform="translate(223.16054,-15.499)">
</g>
<g
   id="g153"
   transform="translate(223.16054,-15.499)">
</g>
<g
   id="g155"
   transform="translate(223.16054,-15.499)">
</g>
<g
   id="g157"
   transform="translate(223.16054,-15.499)">
</g>
<g
   id="g671"><path
     inkscape:connector-curvature="0"
     id="polygon107-6"
     d="m 324.16054,0.5 -2.375,36 -17.74218,269.00195 -10.88282,165 h 46 l 10.88282,-165 L 367.78554,36.5 l 2.375,-36 z"
     style="fill:#f77e65;fill-opacity:1;stroke:#000000" /><path
     inkscape:connector-curvature="0"
     id="polygon107-6-3"
     d="m 624.16054,0.5 2.375,36.000001 17.74218,269.001949 10.88282,165 h -46 l -10.88282,-165 L 580.53554,36.500001 578.16054,0.5 Z"
     style="fill:#f77e65;stroke:#000000" /><path
     inkscape:connector-curvature="0"
     style="fill:#000000;stroke:#000000"
     id="path119"
     d="m 239.14491,330.501 c -5.523,0 -10,4.477 -10,10 0,5.523 4.477,10 10,10 h 9 452.01563 9 c 5.523,0 10,-4.477 10,-10 0,-5.523 -4.477,-10 -10,-10 h -9 -452.01563 z" /><rect
     x="233.16054"
     y="36.5"
     style="fill:#f0efe4;stroke:#000000"
     width="482"
     height="269"
     id="rect115" /></g>



</svg>