<?xml version="1.0" encoding="UTF-8" standalone="no"?>
<svg xmlns="http://www.w3.org/2000/svg" xmlns:xlink="http://www.w3.org/1999/xlink" contentScriptType="application/ecmascript" contentStyleType="text/css" height="405px" preserveAspectRatio="none" style="width:711px;height:405px;" version="1.1" viewBox="0 0 711 405" width="711px" zoomAndPan="magnify"><defs><filter height="300%" id="f1q1fe0zde1gpu" width="300%" x="-1" y="-1"><feGaussianBlur result="blurOut" stdDeviation="2.0"/><feColorMatrix in="blurOut" result="blurOut2" type="matrix" values="0 0 0 0 0 0 0 0 0 0 0 0 0 0 0 0 0 0 .4 0"/><feOffset dx="4.0" dy="4.0" in="blurOut2" result="blurOut3"/><feBlend in="SourceGraphic" in2="blurOut3" mode="normal"/></filter></defs><g><!--MD5=[6095f2ca6896e94b171a031b34c81354]
class Behaviour--><rect codeLine="1" fill="#FEFECE" filter="url(#f1q1fe0zde1gpu)" height="48" id="Behaviour" style="stroke: #A80036; stroke-width: 1.5;" width="92" x="451.5" y="7"/><ellipse cx="466.5" cy="23" fill="#B4A7E5" rx="11" ry="11" style="stroke: #A80036; stroke-width: 1.0;"/><path d="M467.4531,19.7813 L469.1719,19.7813 C469.5625,19.7813 469.75,19.75 469.875,19.6719 C470.1406,19.5156 470.2813,19.2344 470.2813,18.9375 C470.2813,18.6719 470.1719,18.4063 469.9375,18.2344 C469.7656,18.125 469.625,18.0938 469.1719,18.0938 L464.0313,18.0938 C463.5938,18.0938 463.4688,18.1094 463.3125,18.2031 C463.0625,18.3594 462.9063,18.6563 462.9063,18.9375 C462.9063,19.2188 463.0469,19.4688 463.2656,19.6406 C463.4219,19.75 463.6094,19.7813 464.0313,19.7813 L465.75,19.7813 L465.75,26.2969 L464.0313,26.2969 C463.5938,26.2969 463.4688,26.3125 463.3125,26.4219 C463.0625,26.5781 462.9063,26.8594 462.9063,27.1563 C462.9063,27.4063 463.0469,27.6719 463.2656,27.8281 C463.4219,27.9531 463.625,28 464.0313,28 L469.1719,28 C469.9219,28 470.2813,27.7188 470.2813,27.1563 C470.2813,26.875 470.1719,26.625 469.9375,26.4531 C469.7656,26.3281 469.625,26.2969 469.1719,26.2969 L467.4531,26.2969 L467.4531,19.7813 Z " fill="#000000"/><text fill="#000000" font-family="sans-serif" font-size="12" font-style="italic" lengthAdjust="spacingAndGlyphs" textLength="60" x="480.5" y="27.1543">Behaviour</text><line style="stroke: #A80036; stroke-width: 1.5;" x1="452.5" x2="542.5" y1="39" y2="39"/><line style="stroke: #A80036; stroke-width: 1.5;" x1="452.5" x2="542.5" y1="47" y2="47"/><!--MD5=[23020363ba6c0ae4d1d935611a1cf245]
class Parallel--><rect codeLine="3" fill="#FEFECE" filter="url(#f1q1fe0zde1gpu)" height="48" id="Parallel" style="stroke: #A80036; stroke-width: 1.5;" width="74" x="401.5" y="118"/><ellipse cx="416.5" cy="134" fill="#ADD1B2" rx="11" ry="11" style="stroke: #A80036; stroke-width: 1.0;"/><path d="M418.8438,129.6719 C417.9063,129.2344 417.3125,129.0938 416.4375,129.0938 C413.8125,129.0938 411.8125,131.1719 411.8125,133.8906 L411.8125,135.0156 C411.8125,137.5938 413.9219,139.4844 416.8125,139.4844 C418.0313,139.4844 419.1875,139.1875 419.9375,138.6406 C420.5156,138.2344 420.8438,137.7813 420.8438,137.3906 C420.8438,136.9375 420.4531,136.5469 419.9844,136.5469 C419.7656,136.5469 419.5625,136.625 419.375,136.8125 C418.9219,137.2969 418.9219,137.2969 418.7344,137.3906 C418.3125,137.6563 417.625,137.7813 416.8594,137.7813 C414.8125,137.7813 413.5156,136.6875 413.5156,134.9844 L413.5156,133.8906 C413.5156,132.1094 414.7656,130.7969 416.5,130.7969 C417.0781,130.7969 417.6875,130.9531 418.1563,131.2031 C418.6406,131.4844 418.8125,131.7031 418.9063,132.1094 C418.9688,132.5156 419,132.6406 419.1406,132.7656 C419.2813,132.9063 419.5156,133.0156 419.7344,133.0156 C420,133.0156 420.2656,132.875 420.4375,132.6563 C420.5469,132.5 420.5781,132.3125 420.5781,131.8906 L420.5781,130.4688 C420.5781,130.0313 420.5625,129.9063 420.4688,129.75 C420.3125,129.4844 420.0313,129.3438 419.7344,129.3438 C419.4375,129.3438 419.2344,129.4375 419.0156,129.75 L418.8438,129.6719 Z " fill="#000000"/><text fill="#000000" font-family="sans-serif" font-size="12" lengthAdjust="spacingAndGlyphs" textLength="42" x="430.5" y="138.1543">Parallel</text><line style="stroke: #A80036; stroke-width: 1.5;" x1="402.5" x2="474.5" y1="150" y2="150"/><line style="stroke: #A80036; stroke-width: 1.5;" x1="402.5" x2="474.5" y1="158" y2="158"/><!--MD5=[896702bfce61b73dfbf765415205a76e]
class Sequence--><rect codeLine="5" fill="#FEFECE" filter="url(#f1q1fe0zde1gpu)" height="48" id="Sequence" style="stroke: #A80036; stroke-width: 1.5;" width="93" x="511" y="118"/><ellipse cx="526" cy="134" fill="#ADD1B2" rx="11" ry="11" style="stroke: #A80036; stroke-width: 1.0;"/><path d="M528.3438,129.6719 C527.4063,129.2344 526.8125,129.0938 525.9375,129.0938 C523.3125,129.0938 521.3125,131.1719 521.3125,133.8906 L521.3125,135.0156 C521.3125,137.5938 523.4219,139.4844 526.3125,139.4844 C527.5313,139.4844 528.6875,139.1875 529.4375,138.6406 C530.0156,138.2344 530.3438,137.7813 530.3438,137.3906 C530.3438,136.9375 529.9531,136.5469 529.4844,136.5469 C529.2656,136.5469 529.0625,136.625 528.875,136.8125 C528.4219,137.2969 528.4219,137.2969 528.2344,137.3906 C527.8125,137.6563 527.125,137.7813 526.3594,137.7813 C524.3125,137.7813 523.0156,136.6875 523.0156,134.9844 L523.0156,133.8906 C523.0156,132.1094 524.2656,130.7969 526,130.7969 C526.5781,130.7969 527.1875,130.9531 527.6563,131.2031 C528.1406,131.4844 528.3125,131.7031 528.4063,132.1094 C528.4688,132.5156 528.5,132.6406 528.6406,132.7656 C528.7813,132.9063 529.0156,133.0156 529.2344,133.0156 C529.5,133.0156 529.7656,132.875 529.9375,132.6563 C530.0469,132.5 530.0781,132.3125 530.0781,131.8906 L530.0781,130.4688 C530.0781,130.0313 530.0625,129.9063 529.9688,129.75 C529.8125,129.4844 529.5313,129.3438 529.2344,129.3438 C528.9375,129.3438 528.7344,129.4375 528.5156,129.75 L528.3438,129.6719 Z " fill="#000000"/><text fill="#000000" font-family="sans-serif" font-size="12" lengthAdjust="spacingAndGlyphs" textLength="61" x="540" y="138.1543">Sequence</text><line style="stroke: #A80036; stroke-width: 1.5;" x1="512" x2="603" y1="150" y2="150"/><line style="stroke: #A80036; stroke-width: 1.5;" x1="512" x2="603" y1="158" y2="158"/><!--MD5=[414a2667f9d6ae83089461e4e0ca6ef0]
class Wait--><rect codeLine="7" fill="#FEFECE" filter="url(#f1q1fe0zde1gpu)" height="48" id="Wait" style="stroke: #A80036; stroke-width: 1.5;" width="58" x="639.5" y="118"/><ellipse cx="654.5" cy="134" fill="#ADD1B2" rx="11" ry="11" style="stroke: #A80036; stroke-width: 1.0;"/><path d="M656.8438,129.6719 C655.9063,129.2344 655.3125,129.0938 654.4375,129.0938 C651.8125,129.0938 649.8125,131.1719 649.8125,133.8906 L649.8125,135.0156 C649.8125,137.5938 651.9219,139.4844 654.8125,139.4844 C656.0313,139.4844 657.1875,139.1875 657.9375,138.6406 C658.5156,138.2344 658.8438,137.7813 658.8438,137.3906 C658.8438,136.9375 658.4531,136.5469 657.9844,136.5469 C657.7656,136.5469 657.5625,136.625 657.375,136.8125 C656.9219,137.2969 656.9219,137.2969 656.7344,137.3906 C656.3125,137.6563 655.625,137.7813 654.8594,137.7813 C652.8125,137.7813 651.5156,136.6875 651.5156,134.9844 L651.5156,133.8906 C651.5156,132.1094 652.7656,130.7969 654.5,130.7969 C655.0781,130.7969 655.6875,130.9531 656.1563,131.2031 C656.6406,131.4844 656.8125,131.7031 656.9063,132.1094 C656.9688,132.5156 657,132.6406 657.1406,132.7656 C657.2813,132.9063 657.5156,133.0156 657.7344,133.0156 C658,133.0156 658.2656,132.875 658.4375,132.6563 C658.5469,132.5 658.5781,132.3125 658.5781,131.8906 L658.5781,130.4688 C658.5781,130.0313 658.5625,129.9063 658.4688,129.75 C658.3125,129.4844 658.0313,129.3438 657.7344,129.3438 C657.4375,129.3438 657.2344,129.4375 657.0156,129.75 L656.8438,129.6719 Z " fill="#000000"/><text fill="#000000" font-family="sans-serif" font-size="12" lengthAdjust="spacingAndGlyphs" textLength="26" x="668.5" y="138.1543">Wait</text><line style="stroke: #A80036; stroke-width: 1.5;" x1="640.5" x2="696.5" y1="150" y2="150"/><line style="stroke: #A80036; stroke-width: 1.5;" x1="640.5" x2="696.5" y1="158" y2="158"/><!--MD5=[200ec6065ce61db71274ef973d3aac12]
class DoWhile--><rect codeLine="9" fill="#FEFECE" filter="url(#f1q1fe0zde1gpu)" height="48" id="DoWhile" style="stroke: #A80036; stroke-width: 1.5;" width="82" x="516.5" y="232"/><ellipse cx="531.5" cy="248" fill="#ADD1B2" rx="11" ry="11" style="stroke: #A80036; stroke-width: 1.0;"/><path d="M533.8438,243.6719 C532.9063,243.2344 532.3125,243.0938 531.4375,243.0938 C528.8125,243.0938 526.8125,245.1719 526.8125,247.8906 L526.8125,249.0156 C526.8125,251.5938 528.9219,253.4844 531.8125,253.4844 C533.0313,253.4844 534.1875,253.1875 534.9375,252.6406 C535.5156,252.2344 535.8438,251.7813 535.8438,251.3906 C535.8438,250.9375 535.4531,250.5469 534.9844,250.5469 C534.7656,250.5469 534.5625,250.625 534.375,250.8125 C533.9219,251.2969 533.9219,251.2969 533.7344,251.3906 C533.3125,251.6563 532.625,251.7813 531.8594,251.7813 C529.8125,251.7813 528.5156,250.6875 528.5156,248.9844 L528.5156,247.8906 C528.5156,246.1094 529.7656,244.7969 531.5,244.7969 C532.0781,244.7969 532.6875,244.9531 533.1563,245.2031 C533.6406,245.4844 533.8125,245.7031 533.9063,246.1094 C533.9688,246.5156 534,246.6406 534.1406,246.7656 C534.2813,246.9063 534.5156,247.0156 534.7344,247.0156 C535,247.0156 535.2656,246.875 535.4375,246.6563 C535.5469,246.5 535.5781,246.3125 535.5781,245.8906 L535.5781,244.4688 C535.5781,244.0313 535.5625,243.9063 535.4688,243.75 C535.3125,243.4844 535.0313,243.3438 534.7344,243.3438 C534.4375,243.3438 534.2344,243.4375 534.0156,243.75 L533.8438,243.6719 Z " fill="#000000"/><text fill="#000000" font-family="sans-serif" font-size="12" lengthAdjust="spacingAndGlyphs" textLength="50" x="545.5" y="252.1543">DoWhile</text><line style="stroke: #A80036; stroke-width: 1.5;" x1="517.5" x2="597.5" y1="264" y2="264"/><line style="stroke: #A80036; stroke-width: 1.5;" x1="517.5" x2="597.5" y1="272" y2="272"/><!--MD5=[cd5ba7c7111de8db8c71e70bd995b56b]
class AwaitPromise--><rect codeLine="16" fill="#FEFECE" filter="url(#f1q1fe0zde1gpu)" height="53.9375" id="AwaitPromise" style="stroke: #A80036; stroke-width: 1.5;" width="112" x="254.5" y="115"/><ellipse cx="269.5" cy="133.9688" fill="#ADD1B2" rx="11" ry="11" style="stroke: #A80036; stroke-width: 1.0;"/><path d="M271.8438,129.6406 C270.9063,129.2031 270.3125,129.0625 269.4375,129.0625 C266.8125,129.0625 264.8125,131.1406 264.8125,133.8594 L264.8125,134.9844 C264.8125,137.5625 266.9219,139.4531 269.8125,139.4531 C271.0313,139.4531 272.1875,139.1563 272.9375,138.6094 C273.5156,138.2031 273.8438,137.75 273.8438,137.3594 C273.8438,136.9063 273.4531,136.5156 272.9844,136.5156 C272.7656,136.5156 272.5625,136.5938 272.375,136.7813 C271.9219,137.2656 271.9219,137.2656 271.7344,137.3594 C271.3125,137.625 270.625,137.75 269.8594,137.75 C267.8125,137.75 266.5156,136.6563 266.5156,134.9531 L266.5156,133.8594 C266.5156,132.0781 267.7656,130.7656 269.5,130.7656 C270.0781,130.7656 270.6875,130.9219 271.1563,131.1719 C271.6406,131.4531 271.8125,131.6719 271.9063,132.0781 C271.9688,132.4844 272,132.6094 272.1406,132.7344 C272.2813,132.875 272.5156,132.9844 272.7344,132.9844 C273,132.9844 273.2656,132.8438 273.4375,132.625 C273.5469,132.4688 273.5781,132.2813 273.5781,131.8594 L273.5781,130.4375 C273.5781,130 273.5625,129.875 273.4688,129.7188 C273.3125,129.4531 273.0313,129.3125 272.7344,129.3125 C272.4375,129.3125 272.2344,129.4063 272.0156,129.7188 L271.8438,129.6406 Z " fill="#000000"/><text fill="#000000" font-family="sans-serif" font-size="12" font-style="italic" lengthAdjust="spacingAndGlyphs" textLength="64" x="291.5" y="131.1387">«abstract»</text><text fill="#000000" font-family="sans-serif" font-size="12" lengthAdjust="spacingAndGlyphs" textLength="80" x="283.5" y="145.1074">AwaitPromise</text><line style="stroke: #A80036; stroke-width: 1.5;" x1="255.5" x2="365.5" y1="152.9375" y2="152.9375"/><line style="stroke: #A80036; stroke-width: 1.5;" x1="255.5" x2="365.5" y1="160.9375" y2="160.9375"/><path d="M6,122 L6,162.2656 A0,0 0 0 0 6,162.2656 L219,162.2656 A0,0 0 0 0 219,162.2656 L219,146 L254.172,142 L219,138 L219,132 L209,122 L6,122 A0,0 0 0 0 6,122 " fill="#FBFB77" filter="url(#f1q1fe0zde1gpu)" style="stroke: #A80036; stroke-width: 1.0;"/><path d="M209,122 L209,132 L219,132 L209,122 " fill="#FBFB77" style="stroke: #A80036; stroke-width: 1.0;"/><text fill="#000000" font-family="sans-serif" font-size="13" lengthAdjust="spacingAndGlyphs" textLength="139" x="12" y="139.0669">Generic behaviour for</text><text fill="#000000" font-family="sans-serif" font-size="13" lengthAdjust="spacingAndGlyphs" textLength="192" x="12" y="154.1997">awaiting a completable future</text><!--MD5=[edf0d11b8d9b2dbd7bf9df60d781f622]
class LindaOperation--><rect codeLine="18" fill="#FEFECE" filter="url(#f1q1fe0zde1gpu)" height="53.9375" id="LindaOperation" style="stroke: #A80036; stroke-width: 1.5;" width="123" x="249" y="229"/><ellipse cx="264" cy="247.9688" fill="#ADD1B2" rx="11" ry="11" style="stroke: #A80036; stroke-width: 1.0;"/><path d="M266.3438,243.6406 C265.4063,243.2031 264.8125,243.0625 263.9375,243.0625 C261.3125,243.0625 259.3125,245.1406 259.3125,247.8594 L259.3125,248.9844 C259.3125,251.5625 261.4219,253.4531 264.3125,253.4531 C265.5313,253.4531 266.6875,253.1563 267.4375,252.6094 C268.0156,252.2031 268.3438,251.75 268.3438,251.3594 C268.3438,250.9063 267.9531,250.5156 267.4844,250.5156 C267.2656,250.5156 267.0625,250.5938 266.875,250.7813 C266.4219,251.2656 266.4219,251.2656 266.2344,251.3594 C265.8125,251.625 265.125,251.75 264.3594,251.75 C262.3125,251.75 261.0156,250.6563 261.0156,248.9531 L261.0156,247.8594 C261.0156,246.0781 262.2656,244.7656 264,244.7656 C264.5781,244.7656 265.1875,244.9219 265.6563,245.1719 C266.1406,245.4531 266.3125,245.6719 266.4063,246.0781 C266.4688,246.4844 266.5,246.6094 266.6406,246.7344 C266.7813,246.875 267.0156,246.9844 267.2344,246.9844 C267.5,246.9844 267.7656,246.8438 267.9375,246.625 C268.0469,246.4688 268.0781,246.2813 268.0781,245.8594 L268.0781,244.4375 C268.0781,244 268.0625,243.875 267.9688,243.7188 C267.8125,243.4531 267.5313,243.3125 267.2344,243.3125 C266.9375,243.3125 266.7344,243.4063 266.5156,243.7188 L266.3438,243.6406 Z " fill="#000000"/><text fill="#000000" font-family="sans-serif" font-size="12" font-style="italic" lengthAdjust="spacingAndGlyphs" textLength="64" x="291.5" y="245.1387">«abstract»</text><text fill="#000000" font-family="sans-serif" font-size="12" lengthAdjust="spacingAndGlyphs" textLength="91" x="278" y="259.1074">LindaOperation</text><line style="stroke: #A80036; stroke-width: 1.5;" x1="250" x2="371" y1="266.9375" y2="266.9375"/><line style="stroke: #A80036; stroke-width: 1.5;" x1="250" x2="371" y1="274.9375" y2="274.9375"/><path d="M7,236 L7,276.2656 A0,0 0 0 0 7,276.2656 L214,276.2656 A0,0 0 0 0 214,276.2656 L214,260 L248.69,256 L214,252 L214,246 L204,236 L7,236 A0,0 0 0 0 7,236 " fill="#FBFB77" filter="url(#f1q1fe0zde1gpu)" style="stroke: #A80036; stroke-width: 1.0;"/><path d="M204,236 L204,246 L214,246 L204,236 " fill="#FBFB77" style="stroke: #A80036; stroke-width: 1.0;"/><text fill="#000000" font-family="sans-serif" font-size="13" lengthAdjust="spacingAndGlyphs" textLength="139" x="13" y="253.0669">Generic behaviour for</text><text fill="#000000" font-family="sans-serif" font-size="13" lengthAdjust="spacingAndGlyphs" textLength="186" x="13" y="268.1997">performing a Linda operation</text><!--MD5=[653ce350da8e1e1fedf2371259b466b4]
class Out--><rect codeLine="20" fill="#FEFECE" filter="url(#f1q1fe0zde1gpu)" height="48" id="Out" style="stroke: #A80036; stroke-width: 1.5;" width="53" x="121" y="343"/><ellipse cx="136" cy="359" fill="#ADD1B2" rx="11" ry="11" style="stroke: #A80036; stroke-width: 1.0;"/><path d="M138.3438,354.6719 C137.4063,354.2344 136.8125,354.0938 135.9375,354.0938 C133.3125,354.0938 131.3125,356.1719 131.3125,358.8906 L131.3125,360.0156 C131.3125,362.5938 133.4219,364.4844 136.3125,364.4844 C137.5313,364.4844 138.6875,364.1875 139.4375,363.6406 C140.0156,363.2344 140.3438,362.7813 140.3438,362.3906 C140.3438,361.9375 139.9531,361.5469 139.4844,361.5469 C139.2656,361.5469 139.0625,361.625 138.875,361.8125 C138.4219,362.2969 138.4219,362.2969 138.2344,362.3906 C137.8125,362.6563 137.125,362.7813 136.3594,362.7813 C134.3125,362.7813 133.0156,361.6875 133.0156,359.9844 L133.0156,358.8906 C133.0156,357.1094 134.2656,355.7969 136,355.7969 C136.5781,355.7969 137.1875,355.9531 137.6563,356.2031 C138.1406,356.4844 138.3125,356.7031 138.4063,357.1094 C138.4688,357.5156 138.5,357.6406 138.6406,357.7656 C138.7813,357.9063 139.0156,358.0156 139.2344,358.0156 C139.5,358.0156 139.7656,357.875 139.9375,357.6563 C140.0469,357.5 140.0781,357.3125 140.0781,356.8906 L140.0781,355.4688 C140.0781,355.0313 140.0625,354.9063 139.9688,354.75 C139.8125,354.4844 139.5313,354.3438 139.2344,354.3438 C138.9375,354.3438 138.7344,354.4375 138.5156,354.75 L138.3438,354.6719 Z " fill="#000000"/><text fill="#000000" font-family="sans-serif" font-size="12" lengthAdjust="spacingAndGlyphs" textLength="21" x="150" y="363.1543">Out</text><line style="stroke: #A80036; stroke-width: 1.5;" x1="122" x2="173" y1="375" y2="375"/><line style="stroke: #A80036; stroke-width: 1.5;" x1="122" x2="173" y1="383" y2="383"/><!--MD5=[363b13863ca5c059fad6ef53fd52bddf]
class In--><rect codeLine="21" fill="#FEFECE" filter="url(#f1q1fe0zde1gpu)" height="48" id="In" style="stroke: #A80036; stroke-width: 1.5;" width="42" x="209.5" y="343"/><ellipse cx="224.5" cy="359" fill="#ADD1B2" rx="11" ry="11" style="stroke: #A80036; stroke-width: 1.0;"/><path d="M226.8438,354.6719 C225.9063,354.2344 225.3125,354.0938 224.4375,354.0938 C221.8125,354.0938 219.8125,356.1719 219.8125,358.8906 L219.8125,360.0156 C219.8125,362.5938 221.9219,364.4844 224.8125,364.4844 C226.0313,364.4844 227.1875,364.1875 227.9375,363.6406 C228.5156,363.2344 228.8438,362.7813 228.8438,362.3906 C228.8438,361.9375 228.4531,361.5469 227.9844,361.5469 C227.7656,361.5469 227.5625,361.625 227.375,361.8125 C226.9219,362.2969 226.9219,362.2969 226.7344,362.3906 C226.3125,362.6563 225.625,362.7813 224.8594,362.7813 C222.8125,362.7813 221.5156,361.6875 221.5156,359.9844 L221.5156,358.8906 C221.5156,357.1094 222.7656,355.7969 224.5,355.7969 C225.0781,355.7969 225.6875,355.9531 226.1563,356.2031 C226.6406,356.4844 226.8125,356.7031 226.9063,357.1094 C226.9688,357.5156 227,357.6406 227.1406,357.7656 C227.2813,357.9063 227.5156,358.0156 227.7344,358.0156 C228,358.0156 228.2656,357.875 228.4375,357.6563 C228.5469,357.5 228.5781,357.3125 228.5781,356.8906 L228.5781,355.4688 C228.5781,355.0313 228.5625,354.9063 228.4688,354.75 C228.3125,354.4844 228.0313,354.3438 227.7344,354.3438 C227.4375,354.3438 227.2344,354.4375 227.0156,354.75 L226.8438,354.6719 Z " fill="#000000"/><text fill="#000000" font-family="sans-serif" font-size="12" lengthAdjust="spacingAndGlyphs" textLength="10" x="238.5" y="363.1543">In</text><line style="stroke: #A80036; stroke-width: 1.5;" x1="210.5" x2="250.5" y1="375" y2="375"/><line style="stroke: #A80036; stroke-width: 1.5;" x1="210.5" x2="250.5" y1="383" y2="383"/><!--MD5=[b21d125cef41f610e619b76dbe1acef2]
class Rd--><rect codeLine="22" fill="#FEFECE" filter="url(#f1q1fe0zde1gpu)" height="48" id="Rd" style="stroke: #A80036; stroke-width: 1.5;" width="47" x="287" y="343"/><ellipse cx="302" cy="359" fill="#ADD1B2" rx="11" ry="11" style="stroke: #A80036; stroke-width: 1.0;"/><path d="M304.3438,354.6719 C303.4063,354.2344 302.8125,354.0938 301.9375,354.0938 C299.3125,354.0938 297.3125,356.1719 297.3125,358.8906 L297.3125,360.0156 C297.3125,362.5938 299.4219,364.4844 302.3125,364.4844 C303.5313,364.4844 304.6875,364.1875 305.4375,363.6406 C306.0156,363.2344 306.3438,362.7813 306.3438,362.3906 C306.3438,361.9375 305.9531,361.5469 305.4844,361.5469 C305.2656,361.5469 305.0625,361.625 304.875,361.8125 C304.4219,362.2969 304.4219,362.2969 304.2344,362.3906 C303.8125,362.6563 303.125,362.7813 302.3594,362.7813 C300.3125,362.7813 299.0156,361.6875 299.0156,359.9844 L299.0156,358.8906 C299.0156,357.1094 300.2656,355.7969 302,355.7969 C302.5781,355.7969 303.1875,355.9531 303.6563,356.2031 C304.1406,356.4844 304.3125,356.7031 304.4063,357.1094 C304.4688,357.5156 304.5,357.6406 304.6406,357.7656 C304.7813,357.9063 305.0156,358.0156 305.2344,358.0156 C305.5,358.0156 305.7656,357.875 305.9375,357.6563 C306.0469,357.5 306.0781,357.3125 306.0781,356.8906 L306.0781,355.4688 C306.0781,355.0313 306.0625,354.9063 305.9688,354.75 C305.8125,354.4844 305.5313,354.3438 305.2344,354.3438 C304.9375,354.3438 304.7344,354.4375 304.5156,354.75 L304.3438,354.6719 Z " fill="#000000"/><text fill="#000000" font-family="sans-serif" font-size="12" lengthAdjust="spacingAndGlyphs" textLength="15" x="316" y="363.1543">Rd</text><line style="stroke: #A80036; stroke-width: 1.5;" x1="288" x2="333" y1="375" y2="375"/><line style="stroke: #A80036; stroke-width: 1.5;" x1="288" x2="333" y1="383" y2="383"/><!--MD5=[8dad76bf7ab6589a2a16aed7e391ed29]
class Get--><rect codeLine="23" fill="#FEFECE" filter="url(#f1q1fe0zde1gpu)" height="48" id="Get" style="stroke: #A80036; stroke-width: 1.5;" width="53" x="369" y="343"/><ellipse cx="384" cy="359" fill="#ADD1B2" rx="11" ry="11" style="stroke: #A80036; stroke-width: 1.0;"/><path d="M386.3438,354.6719 C385.4063,354.2344 384.8125,354.0938 383.9375,354.0938 C381.3125,354.0938 379.3125,356.1719 379.3125,358.8906 L379.3125,360.0156 C379.3125,362.5938 381.4219,364.4844 384.3125,364.4844 C385.5313,364.4844 386.6875,364.1875 387.4375,363.6406 C388.0156,363.2344 388.3438,362.7813 388.3438,362.3906 C388.3438,361.9375 387.9531,361.5469 387.4844,361.5469 C387.2656,361.5469 387.0625,361.625 386.875,361.8125 C386.4219,362.2969 386.4219,362.2969 386.2344,362.3906 C385.8125,362.6563 385.125,362.7813 384.3594,362.7813 C382.3125,362.7813 381.0156,361.6875 381.0156,359.9844 L381.0156,358.8906 C381.0156,357.1094 382.2656,355.7969 384,355.7969 C384.5781,355.7969 385.1875,355.9531 385.6563,356.2031 C386.1406,356.4844 386.3125,356.7031 386.4063,357.1094 C386.4688,357.5156 386.5,357.6406 386.6406,357.7656 C386.7813,357.9063 387.0156,358.0156 387.2344,358.0156 C387.5,358.0156 387.7656,357.875 387.9375,357.6563 C388.0469,357.5 388.0781,357.3125 388.0781,356.8906 L388.0781,355.4688 C388.0781,355.0313 388.0625,354.9063 387.9688,354.75 C387.8125,354.4844 387.5313,354.3438 387.2344,354.3438 C386.9375,354.3438 386.7344,354.4375 386.5156,354.75 L386.3438,354.6719 Z " fill="#000000"/><text fill="#000000" font-family="sans-serif" font-size="12" lengthAdjust="spacingAndGlyphs" textLength="21" x="398" y="363.1543">Get</text><line style="stroke: #A80036; stroke-width: 1.5;" x1="370" x2="421" y1="375" y2="375"/><line style="stroke: #A80036; stroke-width: 1.5;" x1="370" x2="421" y1="383" y2="383"/><!--MD5=[9553d9a1cce22c9fed15ebc3950bc0a6]
class Count--><rect codeLine="24" fill="#FEFECE" filter="url(#f1q1fe0zde1gpu)" height="48" id="Count" style="stroke: #A80036; stroke-width: 1.5;" width="66" x="457.5" y="343"/><ellipse cx="472.5" cy="359" fill="#ADD1B2" rx="11" ry="11" style="stroke: #A80036; stroke-width: 1.0;"/><path d="M474.8438,354.6719 C473.9063,354.2344 473.3125,354.0938 472.4375,354.0938 C469.8125,354.0938 467.8125,356.1719 467.8125,358.8906 L467.8125,360.0156 C467.8125,362.5938 469.9219,364.4844 472.8125,364.4844 C474.0313,364.4844 475.1875,364.1875 475.9375,363.6406 C476.5156,363.2344 476.8438,362.7813 476.8438,362.3906 C476.8438,361.9375 476.4531,361.5469 475.9844,361.5469 C475.7656,361.5469 475.5625,361.625 475.375,361.8125 C474.9219,362.2969 474.9219,362.2969 474.7344,362.3906 C474.3125,362.6563 473.625,362.7813 472.8594,362.7813 C470.8125,362.7813 469.5156,361.6875 469.5156,359.9844 L469.5156,358.8906 C469.5156,357.1094 470.7656,355.7969 472.5,355.7969 C473.0781,355.7969 473.6875,355.9531 474.1563,356.2031 C474.6406,356.4844 474.8125,356.7031 474.9063,357.1094 C474.9688,357.5156 475,357.6406 475.1406,357.7656 C475.2813,357.9063 475.5156,358.0156 475.7344,358.0156 C476,358.0156 476.2656,357.875 476.4375,357.6563 C476.5469,357.5 476.5781,357.3125 476.5781,356.8906 L476.5781,355.4688 C476.5781,355.0313 476.5625,354.9063 476.4688,354.75 C476.3125,354.4844 476.0313,354.3438 475.7344,354.3438 C475.4375,354.3438 475.2344,354.4375 475.0156,354.75 L474.8438,354.6719 Z " fill="#000000"/><text fill="#000000" font-family="sans-serif" font-size="12" lengthAdjust="spacingAndGlyphs" textLength="34" x="486.5" y="363.1543">Count</text><line style="stroke: #A80036; stroke-width: 1.5;" x1="458.5" x2="522.5" y1="375" y2="375"/><line style="stroke: #A80036; stroke-width: 1.5;" x1="458.5" x2="522.5" y1="383" y2="383"/><!--MD5=[7ce4c67be4eb23c816a27f4efd2a00c0]
reverse link Behaviour to Parallel--><path codeLine="11" d="M475.367,72.89 C467.128,88.111 458.07,104.845 450.994,117.917 " fill="none" id="Behaviour-backto-Parallel" style="stroke: #A80036; stroke-width: 1.0;"/><polygon fill="none" points="469.311,69.373,484.988,55.116,481.623,76.037,469.311,69.373" style="stroke: #A80036; stroke-width: 1.0;"/><!--MD5=[0355966a3dc9db8ada8ab5660e2fc5db]
reverse link Behaviour to Sequence--><path codeLine="12" d="M519.869,72.638 C528.285,87.926 537.558,104.773 544.794,117.917 " fill="none" id="Behaviour-backto-Sequence" style="stroke: #A80036; stroke-width: 1.0;"/><polygon fill="none" points="513.737,76.013,510.224,55.116,526.001,69.261,513.737,76.013" style="stroke: #A80036; stroke-width: 1.0;"/><!--MD5=[7d0b80ac8a848c5d4938825616de822d]
reverse link Behaviour to Wait--><path codeLine="13" d="M551.039,66.127 C580.227,84.732 615.219,107.037 639.377,122.436 " fill="none" id="Behaviour-backto-Wait" style="stroke: #A80036; stroke-width: 1.0;"/><polygon fill="none" points="546.867,71.769,533.765,55.116,554.392,59.964,546.867,71.769" style="stroke: #A80036; stroke-width: 1.0;"/><!--MD5=[fb01e25b2115261555470603fc4c0749]
reverse link Sequence to DoWhile--><path codeLine="14" d="M557.5,186.338 C557.5,201.831 557.5,218.689 557.5,231.823 " fill="none" id="Sequence-backto-DoWhile" style="stroke: #A80036; stroke-width: 1.0;"/><polygon fill="none" points="550.5,186.207,557.5,166.206,564.5,186.206,550.5,186.207" style="stroke: #A80036; stroke-width: 1.0;"/><!--MD5=[25c6bc86f7ece755b36ea20c5e34252a]
reverse link Behaviour to AwaitPromise--><path codeLine="26" d="M440.304,65.339 C413.014,81.246 380.839,100 355.351,114.857 " fill="none" id="Behaviour-backto-AwaitPromise" style="stroke: #A80036; stroke-width: 1.0;"/><polygon fill="none" points="437.038,59.14,457.842,55.116,444.088,71.235,437.038,59.14" style="stroke: #A80036; stroke-width: 1.0;"/><!--MD5=[f50e9ea58266660c3fbd724efbd2efe3]
reverse link AwaitPromise to LindaOperation--><path codeLine="27" d="M310.5,189.367 C310.5,202.865 310.5,217.133 310.5,228.905 " fill="none" id="AwaitPromise-backto-LindaOperation" style="stroke: #A80036; stroke-width: 1.0;"/><polygon fill="none" points="303.5,189.259,310.5,169.259,317.5,189.259,303.5,189.259" style="stroke: #A80036; stroke-width: 1.0;"/><!--MD5=[a4eb9446a7d2afdacbbae7d65cf31d00]
reverse link LindaOperation to Out--><path codeLine="28" d="M254.705,294.311 C227.391,312.5757 195.787,333.7098 174.006,348.2751 " fill="none" id="LindaOperation-backto-Out" style="stroke: #A80036; stroke-width: 1.0;"/><polygon fill="none" points="250.941,288.407,271.457,283.108,258.723,300.0447,250.941,288.407" style="stroke: #A80036; stroke-width: 1.0;"/><!--MD5=[9defe2f1fc0f01335a03ac0ba229a34b]
reverse link LindaOperation to In--><path codeLine="29" d="M279.292,299.5209 C268.509,314.213 256.829,330.1271 247.601,342.7004 " fill="none" id="LindaOperation-backto-In" style="stroke: #A80036; stroke-width: 1.0;"/><polygon fill="none" points="273.861,295.0898,291.338,283.108,285.147,303.3734,273.861,295.0898" style="stroke: #A80036; stroke-width: 1.0;"/><!--MD5=[f2531896843fcde4cba044fbac6c1b84]
reverse link LindaOperation to Rd--><path codeLine="30" d="M310.5,303.3783 C310.5,316.9554 310.5,331.2204 310.5,342.7004 " fill="none" id="LindaOperation-backto-Rd" style="stroke: #A80036; stroke-width: 1.0;"/><polygon fill="none" points="303.5,303.1083,310.5,283.108,317.5,303.1082,303.5,303.1083" style="stroke: #A80036; stroke-width: 1.0;"/><!--MD5=[06bdd157fa2a3fbc8d0a16ac34d7442c]
reverse link LindaOperation to Get--><path codeLine="31" d="M343.285,299.0422 C354.846,313.8667 367.419,329.9904 377.331,342.7004 " fill="none" id="LindaOperation-backto-Get" style="stroke: #A80036; stroke-width: 1.0;"/><polygon fill="none" points="337.638,303.1843,330.86,283.108,348.679,294.5751,337.638,303.1843" style="stroke: #A80036; stroke-width: 1.0;"/><!--MD5=[55908622c7d1dae69dcb6afde5e68f99]
reverse link LindaOperation to Count--><path codeLine="32" d="M370.863,293.5531 C399.713,311.0233 433.136,331.263 457.31,345.9016 " fill="none" id="LindaOperation-backto-Count" style="stroke: #A80036; stroke-width: 1.0;"/><polygon fill="none" points="367.096,299.4557,353.614,283.108,374.348,287.48,367.096,299.4557" style="stroke: #A80036; stroke-width: 1.0;"/><!--MD5=[32021aec2e8f6ffff22e8ea435860e8e]
@startuml
interface Behaviour 

class Parallel

class Sequence

class Wait

class DoWhile

Behaviour <|- - Parallel
Behaviour <|- - Sequence 
Behaviour <|- - Wait
Sequence <|- - DoWhile

class AwaitPromise <<abstract>>
note left: Generic behaviour for\nawaiting a completable future
class LindaOperation <<abstract>>
note left: Generic behaviour for\nperforming a Linda operation
class Out
class In
class Rd
class Get
class Count

Behaviour <|- - AwaitPromise
AwaitPromise <|- - LindaOperation
LindaOperation <|- - Out
LindaOperation <|- - In
LindaOperation <|- - Rd
LindaOperation <|- - Get
LindaOperation <|- - Count
@enduml

PlantUML version 1.2020.20beta11(Unknown compile time)
(GPL source distribution)
Java Runtime: Java(TM) SE Runtime Environment
JVM: Java HotSpot(TM) 64-Bit Server VM
Default Encoding: UTF-8
Language: en
Country: US
--></g></svg>