<?xml version="1.0" encoding="UTF-8" standalone="no"?>
<svg xmlns="http://www.w3.org/2000/svg" xmlns:xlink="http://www.w3.org/1999/xlink" contentScriptType="application/ecmascript" contentStyleType="text/css" height="333px" preserveAspectRatio="none" style="width:597px;height:333px;" version="1.1" viewBox="0 0 597 333" width="597px" zoomAndPan="magnify"><defs><filter height="300%" id="ft932iv7pvml6" width="300%" x="-1" y="-1"><feGaussianBlur result="blurOut" stdDeviation="2.0"/><feColorMatrix in="blurOut" result="blurOut2" type="matrix" values="0 0 0 0 0 0 0 0 0 0 0 0 0 0 0 0 0 0 .4 0"/><feOffset dx="4.0" dy="4.0" in="blurOut2" result="blurOut3"/><feBlend in="SourceGraphic" in2="blurOut3" mode="normal"/></filter></defs><g><rect fill="#DDDDDD" height="318.125" style="stroke: #A80036; stroke-width: 1.0;" width="185" x="401" y="4"/><text fill="#000000" font-family="sans-serif" font-size="13" font-weight="bold" lengthAdjust="spacingAndGlyphs" textLength="136" x="425.5" y="16.0669">Behind the scenes</text><line style="stroke: #A80036; stroke-width: 1.0; stroke-dasharray: 5.0,5.0;" x1="30" x2="30" y1="86.2969" y2="235.8281"/><line style="stroke: #A80036; stroke-width: 1.0; stroke-dasharray: 5.0,5.0;" x1="241" x2="241" y1="86.2969" y2="235.8281"/><line style="stroke: #A80036; stroke-width: 1.0; stroke-dasharray: 5.0,5.0;" x1="440" x2="440" y1="86.2969" y2="235.8281"/><line style="stroke: #A80036; stroke-width: 1.0; stroke-dasharray: 5.0,5.0;" x1="546" x2="546" y1="86.2969" y2="235.8281"/><text fill="#000000" font-family="sans-serif" font-size="14" lengthAdjust="spacingAndGlyphs" textLength="39" x="8" y="82.9951">Client</text><ellipse cx="30.5" cy="13" fill="#FEFECE" filter="url(#ft932iv7pvml6)" rx="8" ry="8" style="stroke: #A80036; stroke-width: 2.0;"/><path d="M30.5,21 L30.5,48 M17.5,29 L43.5,29 M30.5,48 L17.5,63 M30.5,48 L43.5,63 " fill="none" filter="url(#ft932iv7pvml6)" style="stroke: #A80036; stroke-width: 2.0;"/><text fill="#000000" font-family="sans-serif" font-size="14" lengthAdjust="spacingAndGlyphs" textLength="39" x="8" y="247.8232">Client</text><ellipse cx="30.5" cy="261.125" fill="#FEFECE" filter="url(#ft932iv7pvml6)" rx="8" ry="8" style="stroke: #A80036; stroke-width: 2.0;"/><path d="M30.5,269.125 L30.5,296.125 M17.5,277.125 L43.5,277.125 M30.5,296.125 L17.5,311.125 M30.5,296.125 L43.5,311.125 " fill="none" filter="url(#ft932iv7pvml6)" style="stroke: #A80036; stroke-width: 2.0;"/><text fill="#000000" font-family="sans-serif" font-size="14" lengthAdjust="spacingAndGlyphs" textLength="111" x="183" y="82.9951">ExecutorService</text><path d="M221,42 L221,66 M221,54 L238,54 " fill="none" filter="url(#ft932iv7pvml6)" style="stroke: #A80036; stroke-width: 2.0;"/><ellipse cx="250" cy="54" fill="#FEFECE" filter="url(#ft932iv7pvml6)" rx="12" ry="12" style="stroke: #A80036; stroke-width: 2.0;"/><text fill="#000000" font-family="sans-serif" font-size="14" lengthAdjust="spacingAndGlyphs" textLength="111" x="183" y="247.8232">ExecutorService</text><path d="M221,255.125 L221,279.125 M221,267.125 L238,267.125 " fill="none" filter="url(#ft932iv7pvml6)" style="stroke: #A80036; stroke-width: 2.0;"/><ellipse cx="250" cy="267.125" fill="#FEFECE" filter="url(#ft932iv7pvml6)" rx="12" ry="12" style="stroke: #A80036; stroke-width: 2.0;"/><text fill="#000000" font-family="sans-serif" font-size="14" lengthAdjust="spacingAndGlyphs" textLength="65" x="405" y="82.9951">Worker_1</text><ellipse cx="440.5" cy="54" fill="#FEFECE" filter="url(#ft932iv7pvml6)" rx="12" ry="12" style="stroke: #A80036; stroke-width: 2.0;"/><polygon fill="#A80036" points="436.5,42,442.5,37,440.5,42,442.5,47,436.5,42" style="stroke: #A80036; stroke-width: 1.0;"/><text fill="#000000" font-family="sans-serif" font-size="14" lengthAdjust="spacingAndGlyphs" textLength="65" x="405" y="247.8232">Worker_1</text><ellipse cx="440.5" cy="267.125" fill="#FEFECE" filter="url(#ft932iv7pvml6)" rx="12" ry="12" style="stroke: #A80036; stroke-width: 2.0;"/><polygon fill="#A80036" points="436.5,255.125,442.5,250.125,440.5,255.125,442.5,260.125,436.5,255.125" style="stroke: #A80036; stroke-width: 1.0;"/><text fill="#000000" font-family="sans-serif" font-size="14" lengthAdjust="spacingAndGlyphs" textLength="65" x="511" y="82.9951">Worker_2</text><ellipse cx="546.5" cy="54" fill="#FEFECE" filter="url(#ft932iv7pvml6)" rx="12" ry="12" style="stroke: #A80036; stroke-width: 2.0;"/><polygon fill="#A80036" points="542.5,42,548.5,37,546.5,42,548.5,47,542.5,42" style="stroke: #A80036; stroke-width: 1.0;"/><text fill="#000000" font-family="sans-serif" font-size="14" lengthAdjust="spacingAndGlyphs" textLength="65" x="511" y="247.8232">Worker_2</text><ellipse cx="546.5" cy="267.125" fill="#FEFECE" filter="url(#ft932iv7pvml6)" rx="12" ry="12" style="stroke: #A80036; stroke-width: 2.0;"/><polygon fill="#A80036" points="542.5,255.125,548.5,250.125,546.5,255.125,548.5,260.125,542.5,255.125" style="stroke: #A80036; stroke-width: 1.0;"/><polygon fill="#A80036" points="229.5,113.4297,239.5,117.4297,229.5,121.4297,233.5,117.4297" style="stroke: #A80036; stroke-width: 1.0;"/><line style="stroke: #A80036; stroke-width: 1.0;" x1="30.5" x2="235.5" y1="117.4297" y2="117.4297"/><text fill="#000000" font-family="sans-serif" font-size="13" lengthAdjust="spacingAndGlyphs" textLength="187" x="37.5" y="112.3638">execute(() -&gt; println("Hello"))</text><polygon fill="#A80036" points="252.5,142.5625,242.5,146.5625,252.5,150.5625,248.5,146.5625" style="stroke: #A80036; stroke-width: 1.0;"/><line style="stroke: #A80036; stroke-width: 1.0;" x1="246.5" x2="439.5" y1="146.5625" y2="146.5625"/><text fill="#000000" font-family="sans-serif" font-size="13" lengthAdjust="spacingAndGlyphs" textLength="32" x="258.5" y="141.4966">poll()</text><polygon fill="#A80036" points="428.5,171.6953,438.5,175.6953,428.5,179.6953,432.5,175.6953" style="stroke: #A80036; stroke-width: 1.0;"/><line style="stroke: #A80036; stroke-width: 1.0; stroke-dasharray: 2.0,2.0;" x1="241.5" x2="434.5" y1="175.6953" y2="175.6953"/><text fill="#000000" font-family="sans-serif" font-size="13" lengthAdjust="spacingAndGlyphs" textLength="175" x="248.5" y="170.6294">Runnable{ println("Hello") }</text><line style="stroke: #A80036; stroke-width: 1.0;" x1="440.5" x2="482.5" y1="204.8281" y2="204.8281"/><line style="stroke: #A80036; stroke-width: 1.0;" x1="482.5" x2="482.5" y1="204.8281" y2="217.8281"/><line style="stroke: #A80036; stroke-width: 1.0;" x1="441.5" x2="482.5" y1="217.8281" y2="217.8281"/><polygon fill="#A80036" points="451.5,213.8281,441.5,217.8281,451.5,221.8281,447.5,217.8281" style="stroke: #A80036; stroke-width: 1.0;"/><text fill="#000000" font-family="sans-serif" font-size="13" lengthAdjust="spacingAndGlyphs" textLength="92" x="447.5" y="199.7622">println("Hello")</text><!--
@startuml
actor Client

boundary ExecutorService
box "Behind the scenes"    
    control Worker_1
    control Worker_2
end box

Client -> ExecutorService: execute(() -> println("Hello"))



Worker_1 -> ExecutorService: poll()

ExecutorService - -> Worker_1: Runnable{ println("Hello") }



Worker_1 -> Worker_1: println("Hello")
@enduml

PlantUML version 1.2018.11(Sat Sep 22 16:43:53 UTC 2018)
(GPL source distribution)
Java Runtime: Java(TM) SE Runtime Environment
JVM: Java HotSpot(TM) 64-Bit Server VM
Java Version: 1.7.0_25-b15
Operating System: Linux
Default Encoding: UTF-8
Language: en
Country: US
--></g></svg>