<?xml version="1.0" encoding="UTF-8" standalone="no"?>
<!-- Generator: Adobe Illustrator 19.0.0, SVG Export Plug-In . SVG Version: 6.00 Build 0)  -->

<svg
   xmlns:dc="http://purl.org/dc/elements/1.1/"
   xmlns:cc="http://creativecommons.org/ns#"
   xmlns:rdf="http://www.w3.org/1999/02/22-rdf-syntax-ns#"
   xmlns:svg="http://www.w3.org/2000/svg"
   xmlns="http://www.w3.org/2000/svg"
   xmlns:xlink="http://www.w3.org/1999/xlink"
   xmlns:sodipodi="http://sodipodi.sourceforge.net/DTD/sodipodi-0.dtd"
   xmlns:inkscape="http://www.inkscape.org/namespaces/inkscape"
   version="1.1"
   id="Layer_1"
   x="0px"
   y="0px"
   viewBox="0 0 964.9552 471.00195"
   xml:space="preserve"
   sodipodi:docname="linda.svg"
   inkscape:version="0.92.3 (2405546, 2018-03-11)"
   width="964.9552"
   height="471.00195"><metadata
   id="metadata164"><rdf:RDF><cc:Work
       rdf:about=""><dc:format>image/svg+xml</dc:format><dc:type
         rdf:resource="http://purl.org/dc/dcmitype/StillImage" /><dc:title></dc:title></cc:Work></rdf:RDF></metadata><defs
   id="defs162"><marker
   inkscape:isstock="true"
   style="overflow:visible;"
   id="marker5666"
   refX="0.0"
   refY="0.0"
   orient="auto"
   inkscape:stockid="Arrow2Lend"><path
     transform="scale(1.1) rotate(180) translate(1,0)"
     d="M 8.7185878,4.0337352 L -2.2072895,0.016013256 L 8.7185884,-4.0017078 C 6.9730900,-1.6296469 6.9831476,1.6157441 8.7185878,4.0337352 z "
     style="fill-rule:evenodd;stroke-width:0.625;stroke-linejoin:round;stroke:#00aad4;stroke-opacity:1;fill:#00aad4;fill-opacity:1"
     id="path5664" /></marker><marker
   inkscape:stockid="Arrow2Lend"
   orient="auto"
   refY="0.0"
   refX="0.0"
   id="Arrow2Lend"
   style="overflow:visible;"
   inkscape:isstock="true"
   inkscape:collect="always"><path
     id="path5215"
     style="fill-rule:evenodd;stroke-width:0.625;stroke-linejoin:round;stroke:#008000;stroke-opacity:1;fill:#008000;fill-opacity:1"
     d="M 8.7185878,4.0337352 L -2.2072895,0.016013256 L 8.7185884,-4.0017078 C 6.9730900,-1.6296469 6.9831476,1.6157441 8.7185878,4.0337352 z "
     transform="scale(1.1) rotate(180) translate(1,0)" /></marker><marker
   inkscape:stockid="Arrow1Lend"
   orient="auto"
   refY="0.0"
   refX="0.0"
   id="Arrow1Lend"
   style="overflow:visible;"
   inkscape:isstock="true"><path
     id="path5197"
     d="M 0.0,0.0 L 5.0,-5.0 L -12.5,0.0 L 5.0,5.0 L 0.0,0.0 z "
     style="fill-rule:evenodd;stroke:#000000;stroke-width:1pt;stroke-opacity:1;fill:#000000;fill-opacity:1"
     transform="scale(0.8) rotate(180) translate(12.5,0)" /></marker>
	
	
	
	
	
	

		
		
		
		
	</defs><sodipodi:namedview
   pagecolor="#ffffff"
   bordercolor="#666666"
   borderopacity="1"
   objecttolerance="10"
   gridtolerance="10"
   guidetolerance="10"
   inkscape:pageopacity="0"
   inkscape:pageshadow="2"
   inkscape:window-width="1920"
   inkscape:window-height="1145"
   id="namedview160"
   showgrid="false"
   showguides="true"
   inkscape:guide-bbox="true"
   inkscape:snap-bbox="true"
   inkscape:bbox-paths="true"
   inkscape:bbox-nodes="true"
   inkscape:snap-bbox-edge-midpoints="true"
   inkscape:snap-bbox-midpoints="true"
   inkscape:object-paths="true"
   inkscape:snap-intersection-paths="true"
   inkscape:snap-smooth-nodes="true"
   inkscape:snap-midpoints="true"
   inkscape:snap-object-midpoints="true"
   inkscape:snap-center="true"
   inkscape:snap-text-baseline="true"
   inkscape:zoom="1.3578704"
   inkscape:cx="467.9072"
   inkscape:cy="211.95014"
   inkscape:window-x="1280"
   inkscape:window-y="27"
   inkscape:window-maximized="1"
   inkscape:current-layer="Layer_1"
   fit-margin-top="0"
   fit-margin-left="0"
   fit-margin-right="0"
   fit-margin-bottom="0" />

<g
   id="g129"
   transform="translate(223.16054,-15.499)">
</g>
<g
   id="g131"
   transform="translate(223.16054,-15.499)">
</g>
<g
   id="g133"
   transform="translate(223.16054,-15.499)">
</g>
<g
   id="g135"
   transform="translate(223.16054,-15.499)">
</g>
<g
   id="g137"
   transform="translate(223.16054,-15.499)">
</g>
<g
   id="g139"
   transform="translate(223.16054,-15.499)">
</g>
<g
   id="g141"
   transform="translate(223.16054,-15.499)">
</g>
<g
   id="g143"
   transform="translate(223.16054,-15.499)">
</g>
<g
   id="g145"
   transform="translate(223.16054,-15.499)">
</g>
<g
   id="g147"
   transform="translate(223.16054,-15.499)">
</g>
<g
   id="g149"
   transform="translate(223.16054,-15.499)">
</g>
<g
   id="g151"
   transform="translate(223.16054,-15.499)">
</g>
<g
   id="g153"
   transform="translate(223.16054,-15.499)">
</g>
<g
   id="g155"
   transform="translate(223.16054,-15.499)">
</g>
<g
   id="g157"
   transform="translate(223.16054,-15.499)">
</g>
<g
   id="g671"><path
     inkscape:connector-curvature="0"
     id="polygon107-6"
     d="m 324.16054,0.5 -2.375,36 -17.74218,269.00195 -10.88282,165 h 46 l 10.88282,-165 L 367.78554,36.5 l 2.375,-36 z"
     style="fill:#f77e65;fill-opacity:1;stroke:#000000" /><path
     inkscape:connector-curvature="0"
     id="polygon107-6-3"
     d="m 624.16054,0.5 2.375,36.000001 17.74218,269.001949 10.88282,165 h -46 l -10.88282,-165 L 580.53554,36.500001 578.16054,0.5 Z"
     style="fill:#f77e65;stroke:#000000" /><path
     inkscape:connector-curvature="0"
     style="fill:#000000;stroke:#000000"
     id="path119"
     d="m 239.14491,330.501 c -5.523,0 -10,4.477 -10,10 0,5.523 4.477,10 10,10 h 9 452.01563 9 c 5.523,0 10,-4.477 10,-10 0,-5.523 -4.477,-10 -10,-10 h -9 -452.01563 z" /><rect
     x="233.16054"
     y="36.5"
     style="fill:#f0efe4;stroke:#000000"
     width="482"
     height="269"
     id="rect115" /></g><g
   id="g9484"><rect
     y="71.078575"
     x="271.16501"
     height="34.192886"
     width="284.33951"
     id="rect675"
     style="fill:#ffffff;fill-opacity:1;stroke:#000000;stroke-width:0.82234925" /><text
     id="text661"
     y="94.906166"
     x="279.58633"
     style="font-style:normal;font-weight:normal;font-size:28.24028587px;line-height:1.25;font-family:sans-serif;letter-spacing:0px;word-spacing:0px;fill:#000000;fill-opacity:1;stroke:none;stroke-width:0.70600712"
     xml:space="preserve"><tspan
       style="font-style:normal;font-variant:normal;font-weight:normal;font-stretch:normal;font-family:'Ubuntu Mono';-inkscape-font-specification:'Ubuntu Mono';stroke-width:0.70600712"
       y="94.906166"
       x="279.58633"
       id="tspan659"
       sodipodi:role="line">to: <tspan
   style="font-style:normal;font-variant:normal;font-weight:bold;font-stretch:normal;font-family:'Ubuntu Mono';-inkscape-font-specification:'Ubuntu Mono Bold';stroke-width:0.70600712"
   id="tspan5643">Bob</tspan>, msg: <tspan
   id="tspan665"
   style="font-style:normal;font-variant:normal;font-weight:bold;font-stretch:normal;font-family:'Ubuntu Mono';-inkscape-font-specification:'Ubuntu Mono Bold';stroke-width:0.70600712">Hello</tspan></tspan></text>
</g><path
   style="fill:none;stroke:#008000;stroke-width:2.8;stroke-linecap:butt;stroke-linejoin:miter;stroke-opacity:1;stroke-miterlimit:4;stroke-dasharray:none;marker-end:url(#Arrow2Lend)"
   d="m 77.070539,244.99781 c 0,0 20.582783,-139.74694 194.115041,-156.822802"
   id="path684"
   inkscape:connector-curvature="0" /><g
   id="g493"
   transform="translate(775.62042,94.632036)"><g
     id="g415">
	<g
   id="g403">
		<rect
   id="rect369"
   height="32.922001"
   width="29.395"
   style="fill:#fdcc9b"
   y="148.231"
   x="84.550003" />
		<path
   id="path371"
   d="m 84.551,152.108 c 0,0 12.365,7.874 29.395,6.05 V 148.23 H 84.551 Z"
   style="fill:#fcbc85"
   inkscape:connector-curvature="0" />
		<ellipse
   id="ellipse373"
   ry="16.364"
   rx="14.343"
   cy="97.181"
   cx="42.164001"
   style="fill:#fcbc85" />
		<ellipse
   id="ellipse375"
   ry="16.364"
   rx="14.343"
   cy="97.181"
   cx="156.332"
   style="fill:#fcbc85" />
		<path
   id="path377"
   d="m 156.274,65.925 c 0,-24.103 -17.637,-41.741 -57.026,-41.741 -39.389,0 -57.026,17.637 -57.026,41.741 0,24.104 -4.115,87.597 57.026,87.597 61.141,0 57.026,-63.493 57.026,-87.597 z"
   style="fill:#fdcc9b"
   inkscape:connector-curvature="0" />
		<g
   id="g395">
			<g
   id="g383">
				<ellipse
   id="ellipse379"
   ry="6.7610002"
   rx="6.1729999"
   cy="93.262001"
   cx="71.472"
   style="fill:#3b2519" />
				<circle
   id="circle381"
   r="1.846"
   cy="90.277"
   cx="68.780998"
   style="fill:#ffffff" />
			</g>
			<path
   id="path385"
   d="m 61.597,76.507 c 2.919,1.46 7.606,-4.96 18.335,0.625 1.956,1.018 3.123,-8.708 -8.377,-8.708 -9.958,0 -11.722,7.202 -9.958,8.083 z"
   style="fill:#51362a"
   inkscape:connector-curvature="0" />
			<g
   id="g391">
				<ellipse
   id="ellipse387"
   ry="6.7610002"
   rx="6.1729999"
   cy="93.262001"
   cx="127.786"
   style="fill:#3b2519" />
				<circle
   id="circle389"
   r="1.846"
   cy="90.277"
   cx="125.095"
   style="fill:#ffffff" />
			</g>
			<path
   id="path393"
   d="m 136.899,76.507 c -2.919,1.46 -7.606,-4.96 -18.335,0.625 -1.956,1.018 -3.123,-8.708 8.378,-8.708 9.957,0 11.72,7.202 9.957,8.083 z"
   style="fill:#51362a"
   inkscape:connector-curvature="0" />
		</g>
		<path
   id="path397"
   d="m 99.248,117.043 c -6.1,0 -9.774,-4.556 -9.774,-2.352 0,2.205 1.764,6.394 9.774,6.394 8.01,0 9.774,-4.189 9.774,-6.394 0,-2.205 -3.675,2.352 -9.774,2.352 z"
   style="fill:#fcbc85"
   inkscape:connector-curvature="0" />
		<path
   id="path399"
   d="m 99.248,137.313 c -2.11,0 -3.381,-1.576 -3.381,-0.813 0,0.763 0.61,2.211 3.381,2.211 2.771,0 3.38,-1.448 3.38,-2.211 0,-0.763 -1.271,0.813 -3.38,0.813 z"
   style="fill:#fcbc85"
   inkscape:connector-curvature="0" />
		<path
   id="path401"
   d="m 99.248,131.696 c -9.668,0 -15.493,-3.937 -15.493,-2.939 0,0.998 2.796,4.924 15.493,4.924 12.697,0 15.493,-3.926 15.493,-4.924 -0.001,-0.998 -5.825,2.939 -15.493,2.939 z"
   style="fill:#f7945e"
   inkscape:connector-curvature="0" />
	</g>
	<path
   id="path405"
   d="m 99.248,161.458 v 37.038 H 27.821 c 0,-14.992 37.623,-37.038 71.427,-37.038 z"
   style="fill:#f7941e"
   inkscape:connector-curvature="0" />
	<path
   id="path407"
   d="m 99.248,161.458 v 37.038 h 71.427 c 0,-14.992 -37.623,-37.038 -71.427,-37.038 z"
   style="fill:#f7941e"
   inkscape:connector-curvature="0" />
	<path
   id="path409"
   d="m 99.248,161.458 c -7.19,0 -14.552,1.005 -21.689,2.72 0.048,0.063 7.916,10.214 21.689,10.214 12.754,0 21.233,-8.693 22.462,-10.03 -7.378,-1.831 -15.012,-2.904 -22.462,-2.904 z"
   style="fill:#f36c21"
   inkscape:connector-curvature="0" />
	<path
   id="path411"
   d="m 84.55,162.74 c 0,0 4.299,5.332 14.697,5.332 10.398,0 14.698,-5.332 14.698,-5.332 0,0 -15.248,-5.551 -29.395,0 z"
   style="fill:#fdcc9b"
   inkscape:connector-curvature="0" />
	<path
   id="path413"
   d="m 146.132,19.041 c 0,0 -21.164,-26.896 -65.152,-16.755 -43.987,10.14 -47.283,36.596 -45.96,62.335 1.323,25.74 4.85,40.84 9.022,38.974 4.172,-1.867 2.001,-18.857 2.442,-22.778 0.441,-3.921 4.409,-21.653 31.162,-19.007 26.752,2.646 49.296,-7.055 49.296,-7.055 0,0 9.075,11.471 15.047,13.669 11.934,4.391 8.02,33.67 12.696,33.67 4.676,0 27.603,-67.621 -8.553,-83.053 z"
   style="fill:#51362a"
   inkscape:connector-curvature="0" />
</g><g
     id="g417">
</g><g
     id="g419">
</g><g
     id="g421">
</g><g
     id="g423">
</g><g
     id="g425">
</g><g
     id="g427">
</g><g
     id="g429">
</g><g
     id="g431">
</g><g
     id="g433">
</g><g
     id="g435">
</g><g
     id="g437">
</g><g
     id="g439">
</g><g
     id="g441">
</g><g
     id="g443">
</g><g
     id="g445">
</g></g><text
   xml:space="preserve"
   style="font-style:normal;font-weight:normal;font-size:40px;line-height:1.25;font-family:sans-serif;letter-spacing:0px;word-spacing:0px;fill:#008000;fill-opacity:1;stroke:none"
   id="text5516"><textPath
     xlink:href="#path684"
     id="textPath5530"
     dx="76.91008"
     rotate="0 0 0 0 0 0 0"
     dy="-20"
     style="font-style:normal;font-variant:normal;font-weight:normal;font-stretch:normal;font-family:'Ubuntu Mono';-inkscape-font-specification:'Ubuntu Mono';letter-spacing:-3.14999938px;word-spacing:0px"> write</textPath></text>
<g
   transform="translate(-7.2011264,193.24866)"
   id="g5641"><g
     id="g5609">
	<path
   inkscape:connector-curvature="0"
   style="fill:#330c00"
   d="m 103.485,43.514 v 160.004 c 0,0 -90.83,9.412 -90.83,-34.866 0,0 24.397,3.075 19.402,-17.273 -6.332,-25.796 -2.79,-67.574 0,-90.408 2.79,-22.835 71.428,-17.457 71.428,-17.457 z"
   id="path5539" />
	<path
   inkscape:connector-curvature="0"
   style="fill:#330c00"
   d="m 103.191,43.514 v 160.004 c 0,0 90.83,9.412 90.83,-34.866 0,0 -24.397,3.075 -19.402,-17.273 6.332,-25.796 2.79,-67.574 0,-90.408 -2.791,-22.835 -71.428,-17.457 -71.428,-17.457 z"
   id="path5541" />
	<path
   inkscape:connector-curvature="0"
   style="fill:#00b497"
   d="m 105.07,179.723 v -23.311 c 0,0 37.002,-1.121 37.002,21.274 z"
   id="path5543" />
	<path
   inkscape:connector-curvature="0"
   style="fill:#00b497"
   d="m 101.9,179.723 v -23.311 c 0,0 -37.002,-1.121 -37.002,21.274 z"
   id="path5545" />
	<g
   id="g5587">
		<g
   id="g5581">
			<rect
   x="88.788002"
   y="156.41"
   style="fill:#fdcc9b"
   width="29.395"
   height="32.923"
   id="rect5547" />
			<path
   inkscape:connector-curvature="0"
   style="fill:#fcbc85"
   d="m 88.788,160.288 c 0,0 12.364,7.874 29.395,6.051 V 156.41 H 88.788 Z"
   id="path5549" />
			<ellipse
   style="fill:#fcbc85"
   cx="46.400002"
   cy="105.36"
   rx="14.343"
   ry="16.364"
   id="ellipse5551" />
			<ellipse
   style="fill:#fcbc85"
   cx="160.56799"
   cy="105.36"
   rx="14.343"
   ry="16.364"
   id="ellipse5553" />
			<path
   inkscape:connector-curvature="0"
   style="fill:#fdcc9b"
   d="m 160.51,74.104 c 0,-24.104 -17.637,-41.74 -57.025,-41.74 -39.39,0 -57.026,17.637 -57.026,41.74 0,24.104 -4.115,87.597 57.026,87.597 61.141,0 57.025,-63.492 57.025,-87.597 z"
   id="path5555" />
			<g
   id="g5573">
				<g
   id="g5561">
					<ellipse
   style="fill:#3b2519"
   cx="75.709"
   cy="101.442"
   rx="6.1729999"
   ry="6.7610002"
   id="ellipse5557" />
					<circle
   style="fill:#ffffff"
   cx="73.017998"
   cy="98.457001"
   r="1.846"
   id="circle5559" />
				</g>
				<path
   inkscape:connector-curvature="0"
   style="fill:#684b37"
   d="m 65.834,86.865 c 2.919,1.117 7.606,-3.799 18.336,0.478 1.955,0.78 3.123,-6.668 -8.378,-6.668 -9.958,0 -11.722,5.514 -9.958,6.19 z"
   id="path5563" />
				<g
   id="g5569">
					<ellipse
   style="fill:#3b2519"
   cx="132.02299"
   cy="101.442"
   rx="6.1729999"
   ry="6.7610002"
   id="ellipse5565" />
					<circle
   style="fill:#ffffff"
   cx="129.332"
   cy="98.457001"
   r="1.847"
   id="circle5567" />
				</g>
				<path
   inkscape:connector-curvature="0"
   style="fill:#684b37"
   d="m 141.135,86.865 c -2.919,1.117 -7.605,-3.799 -18.335,0.478 -1.955,0.78 -3.123,-6.668 8.378,-6.668 9.957,0 11.721,5.514 9.957,6.19 z"
   id="path5571" />
			</g>
			<path
   inkscape:connector-curvature="0"
   style="fill:#fcbc85"
   d="m 103.485,125.223 c -6.1,0 -9.774,-4.557 -9.774,-2.352 0,2.204 1.764,6.394 9.774,6.394 8.01,0 9.773,-4.189 9.773,-6.394 0,-2.205 -3.674,2.352 -9.773,2.352 z"
   id="path5575" />
			<path
   inkscape:connector-curvature="0"
   style="fill:#fcbc85"
   d="m 103.485,145.493 c -2.11,0 -3.381,-1.576 -3.381,-0.813 0,0.763 0.61,2.212 3.381,2.212 2.771,0 3.38,-1.449 3.38,-2.212 0,-0.763 -1.271,0.813 -3.38,0.813 z"
   id="path5577" />
			<path
   inkscape:connector-curvature="0"
   style="fill:#f7945e"
   d="m 103.485,139.876 c -9.669,0 -15.493,-3.938 -15.493,-2.94 0,0.997 2.796,4.924 15.493,4.924 12.697,0 15.493,-3.927 15.493,-4.924 0,-0.997 -5.825,2.94 -15.493,2.94 z"
   id="path5579" />
		</g>
		<circle
   style="fill:#f9aa8d"
   cx="67.771004"
   cy="123.048"
   r="8.3769999"
   id="circle5583" />
		<circle
   style="fill:#f9aa8d"
   cx="140.229"
   cy="123.048"
   r="8.3769999"
   id="circle5585" />
	</g>
	<path
   inkscape:connector-curvature="0"
   style="fill:#8fd6e7"
   d="m 103.485,169.638 v 37.038 H 39.112 c 0,-14.991 30.569,-37.038 64.373,-37.038 z"
   id="path5589" />
	<path
   inkscape:connector-curvature="0"
   style="fill:#8fd6e7"
   d="m 103.485,169.638 v 37.038 h 64.372 c 0,-14.991 -30.568,-37.038 -64.372,-37.038 z"
   id="path5591" />
	<path
   inkscape:connector-curvature="0"
   style="fill:#f6b1cf"
   d="m 103.485,204.999 v -35.361 c -9.417,0 -18.551,1.752 -26.874,4.544 z"
   id="path5593" />
	<path
   inkscape:connector-curvature="0"
   style="fill:#f6b1cf"
   d="m 103.485,204.999 v -35.361 c 9.416,0 18.55,1.752 26.874,4.544 z"
   id="path5595" />
	<path
   inkscape:connector-curvature="0"
   style="fill:#f283b4"
   d="m 103.485,169.638 c -6.849,0 -13.545,0.939 -19.9,2.507 0.905,5.501 4.62,16.787 19.9,16.787 15.279,0 18.994,-11.286 19.899,-16.787 -6.354,-1.569 -13.05,-2.507 -19.899,-2.507 z"
   id="path5597" />
	<path
   inkscape:connector-curvature="0"
   style="fill:#fdcc9b"
   d="m 88.788,170.92 c 0,0 -10e-4,13.239 14.697,13.239 14.697,0 14.697,-13.239 14.697,-13.239 0,0 -15.249,-5.552 -29.394,0 z"
   id="path5599" />
	<path
   inkscape:connector-curvature="0"
   style="fill:#3abdaa"
   d="m 80.992,172.401 c 0.44,-2.861 -17.119,-0.752 -16.976,7.321 0.145,8.073 19.401,14.284 24.692,17.224 5.291,2.939 14.697,9.729 14.697,9.729 0,0 1.764,-6.82 -6.467,-12.082 -8.229,-5.26 -16.534,-18.37 -15.946,-22.192 z"
   id="path5601" />
	<path
   inkscape:connector-curvature="0"
   style="fill:#3abdaa"
   d="m 125.763,172.401 c -0.44,-2.861 17.119,-0.752 16.976,7.321 -0.145,8.073 -19.401,14.284 -24.692,17.224 -5.291,2.939 -14.697,9.729 -14.697,9.729 0,0 -1.764,-6.82 6.467,-12.082 8.229,-5.26 16.534,-18.37 15.946,-22.192 z"
   id="path5603" />
	<path
   inkscape:connector-curvature="0"
   style="fill:#401900"
   d="M 103.485,0 C 37.346,0 28.528,57.747 28.528,100.303 c 0,42.557 22.031,67.27 39.243,74.172 0,0 -27.485,-48.708 -13.964,-93.8 11.063,-36.894 49.678,-26 49.678,-26 0,0 38.613,-10.895 49.677,26 13.521,45.092 -13.964,93.8 -13.964,93.8 17.213,-6.902 39.244,-31.615 39.244,-74.172 C 178.442,57.747 169.624,0 103.485,0 Z"
   id="path5605" />
	<path
   inkscape:connector-curvature="0"
   style="fill:#401900"
   d="m 125.85,64.864 c 0,0 -24.824,12.444 -46.746,9.946 -21.921,-2.499 -30.341,20.228 -29.003,35.269 l -7.316,-33.476 13.228,-26.485 37.698,-19.4 35.621,1.646 16.893,14.668 14.344,17.832 10.083,11.739 -4.851,36.126 -10.268,12.349 c 0.001,0 9.291,-46.35 -29.683,-60.214 z"
   id="path5607" />
</g><g
     id="g5611">
</g><g
     id="g5613">
</g><g
     id="g5615">
</g><g
     id="g5617">
</g><g
     id="g5619">
</g><g
     id="g5621">
</g><g
     id="g5623">
</g><g
     id="g5625">
</g><g
     id="g5627">
</g><g
     id="g5629">
</g><g
     id="g5631">
</g><g
     id="g5633">
</g><g
     id="g5635">
</g><g
     id="g5637">
</g><g
     id="g5639">
</g></g><path
   style="fill:none;stroke:#00aad4;stroke-width:2.79999995;stroke-linecap:butt;stroke-linejoin:miter;stroke-miterlimit:4;stroke-dasharray:none;stroke-opacity:1;marker-end:url(#marker5666)"
   d="m 518.01074,105.27146 c 0,0 66.04557,149.86678 299.77368,102.90558"
   id="path5650"
   inkscape:connector-curvature="0"
   sodipodi:nodetypes="cc" /><text
   xml:space="preserve"
   style="font-style:normal;font-weight:normal;font-size:40px;line-height:1.25;font-family:sans-serif;letter-spacing:0px;word-spacing:0px;fill:#000000;fill-opacity:1;stroke:none"
   x="49.857273"
   y="436.31427"
   id="text5744"><tspan
     sodipodi:role="line"
     id="tspan5742"
     x="49.857273"
     y="436.31427"
     style="font-style:italic;font-variant:normal;font-weight:normal;font-stretch:normal;font-family:sans-serif;-inkscape-font-specification:'sans-serif Italic'">Alice</tspan></text>
<text
   xml:space="preserve"
   style="font-style:normal;font-weight:normal;font-size:40px;line-height:1.25;font-family:sans-serif;letter-spacing:0px;word-spacing:0px;fill:#000000;fill-opacity:1;stroke:none"
   x="828.7356"
   y="329.51865"
   id="text5744-6"><tspan
     sodipodi:role="line"
     id="tspan5742-4"
     x="828.7356"
     y="329.51865"
     style="font-style:italic;font-variant:normal;font-weight:normal;font-stretch:normal;font-family:sans-serif;-inkscape-font-specification:'sans-serif Italic'">Bob</tspan></text>
<text
   xml:space="preserve"
   style="font-style:normal;font-weight:normal;font-size:40px;line-height:1.25;font-family:sans-serif;letter-spacing:0px;word-spacing:0px;fill:#00aad4;fill-opacity:1;stroke:none;"
   id="text9426"><textPath
     xlink:href="#path5650"
     id="textPath9434"
     style="letter-spacing:2.82999955px;fill:#00aad4;fill-opacity:1;"><tspan
       style="font-style:normal;font-variant:normal;font-weight:normal;font-stretch:normal;font-family:'Ubuntu Mono';-inkscape-font-specification:'Ubuntu Mono';letter-spacing:2.82999955px;fill:#00aad4;fill-opacity:1;"
       id="tspan9424"
       dx="100"
       dy="-20">read</tspan></textPath></text>
<g
   transform="matrix(0.55442063,0,0,0.55442063,-132.44656,186.60918)"
   id="g9484-0-4"><rect
     y="71.078575"
     x="271.16501"
     height="34.192886"
     width="284.33951"
     id="rect675-0-4"
     style="fill:#ffffff;fill-opacity:1;stroke:#000000;stroke-width:0.82234925" /><text
     id="text661-7-6"
     y="94.906166"
     x="279.58633"
     style="font-style:normal;font-weight:normal;font-size:28.24028587px;line-height:1.25;font-family:sans-serif;letter-spacing:0px;word-spacing:0px;fill:#000000;fill-opacity:1;stroke:none;stroke-width:0.70600712"
     xml:space="preserve"><tspan
       style="font-style:normal;font-variant:normal;font-weight:normal;font-stretch:normal;font-family:'Ubuntu Mono';-inkscape-font-specification:'Ubuntu Mono';stroke-width:0.70600712"
       y="94.906166"
       x="279.58633"
       id="tspan659-3-3"
       sodipodi:role="line">to: <tspan
   style="font-style:normal;font-variant:normal;font-weight:bold;font-stretch:normal;font-family:'Ubuntu Mono';-inkscape-font-specification:'Ubuntu Mono Bold';stroke-width:0.70600712"
   id="tspan5643-9-9">Bob</tspan>, msg: <tspan
   id="tspan665-7-6"
   style="font-style:normal;font-variant:normal;font-weight:bold;font-stretch:normal;font-family:'Ubuntu Mono';-inkscape-font-specification:'Ubuntu Mono Bold';stroke-width:0.70600712">Hello</tspan></tspan></text>
</g><g
   id="g9634"
   transform="translate(36.312354,71.060229)"><path
     transform="matrix(0.50296704,0,0,0.10320609,379.31211,41.330047)"
     d="m 1030.2561,305.33366 c -32.45536,32.4554 -197.03889,32.4554 -229.49429,0 -32.4554,-32.45539 -32.4554,-197.03892 0,-229.49432 32.4554,-32.455398 197.03893,-32.455399 229.49429,0 32.4554,32.4554 32.4554,197.03893 0,229.49432 z"
     inkscape:randomized="0"
     inkscape:rounded="0.2"
     inkscape:flatsided="true"
     sodipodi:arg2="1.5707963"
     sodipodi:arg1="0.78539816"
     sodipodi:r2="114.74717"
     sodipodi:r1="162.27699"
     sodipodi:cy="190.5865"
     sodipodi:cx="915.50897"
     sodipodi:sides="4"
     id="path9627"
     style="fill:#e6e6e6;fill-opacity:1;stroke:#000000;stroke-width:1.79515076;stroke-linejoin:round;stroke-miterlimit:50;stroke-dasharray:none"
     sodipodi:type="star" /><text
     id="text661-7"
     y="64.731621"
     x="781.11255"
     style="font-style:normal;font-weight:normal;font-size:15.65699673px;line-height:1.25;font-family:sans-serif;letter-spacing:0px;word-spacing:0px;fill:#000000;fill-opacity:1;stroke:none;stroke-width:0.39142492"
     xml:space="preserve"><tspan
       style="font-style:normal;font-variant:normal;font-weight:normal;font-stretch:normal;font-family:'Ubuntu Mono';-inkscape-font-specification:'Ubuntu Mono';stroke-width:0.39142492"
       y="64.731621"
       x="781.11255"
       id="tspan659-3"
       sodipodi:role="line">to: <tspan
   style="font-style:normal;font-variant:normal;font-weight:bold;font-stretch:normal;font-family:'Ubuntu Mono';-inkscape-font-specification:'Ubuntu Mono Bold';stroke-width:0.39142492"
   id="tspan5643-9">Bob</tspan>, msg: <tspan
   style="font-style:normal;font-variant:normal;font-weight:bold;font-stretch:normal;font-family:'Ubuntu Mono';-inkscape-font-specification:'Ubuntu Mono Bold';stroke-width:0.39142492"
   id="tspan9606">*</tspan></tspan></text>
</g></svg>