<?xml version="1.0" encoding="UTF-8" standalone="no"?><svg xmlns="http://www.w3.org/2000/svg" xmlns:xlink="http://www.w3.org/1999/xlink" contentScriptType="application/ecmascript" contentStyleType="text/css" height="280px" preserveAspectRatio="none" style="width:464px;height:280px;" version="1.1" viewBox="0 0 464 280" width="464px" zoomAndPan="magnify"><defs><filter height="300%" id="f102vn6mep8ala" width="300%" x="-1" y="-1"><feGaussianBlur result="blurOut" stdDeviation="2.0"/><feColorMatrix in="blurOut" result="blurOut2" type="matrix" values="0 0 0 0 0 0 0 0 0 0 0 0 0 0 0 0 0 0 .4 0"/><feOffset dx="4.0" dy="4.0" in="blurOut2" result="blurOut3"/><feBlend in="SourceGraphic" in2="blurOut3" mode="normal"/></filter></defs><g><line style="stroke: #A80036; stroke-width: 1.0; stroke-dasharray: 5.0,5.0;" x1="27" x2="27" y1="86.2969" y2="193.6953"/><line style="stroke: #A80036; stroke-width: 1.0; stroke-dasharray: 5.0,5.0;" x1="249" x2="249" y1="86.2969" y2="193.6953"/><line style="stroke: #A80036; stroke-width: 1.0; stroke-dasharray: 5.0,5.0;" x1="439" x2="439" y1="86.2969" y2="193.6953"/><text fill="#000000" font-family="sans-serif" font-size="14" lengthAdjust="spacingAndGlyphs" textLength="32" x="8" y="82.9951">Alice</text><ellipse cx="27" cy="13" fill="#FEFECE" filter="url(#f102vn6mep8ala)" rx="8" ry="8" style="stroke: #A80036; stroke-width: 2.0;"/><path d="M27,21 L27,48 M14,29 L40,29 M27,48 L14,63 M27,48 L40,63 " fill="none" filter="url(#f102vn6mep8ala)" style="stroke: #A80036; stroke-width: 2.0;"/><text fill="#000000" font-family="sans-serif" font-size="14" lengthAdjust="spacingAndGlyphs" textLength="32" x="8" y="205.6904">Alice</text><ellipse cx="27" cy="218.9922" fill="#FEFECE" filter="url(#f102vn6mep8ala)" rx="8" ry="8" style="stroke: #A80036; stroke-width: 2.0;"/><path d="M27,226.9922 L27,253.9922 M14,234.9922 L40,234.9922 M27,253.9922 L14,268.9922 M27,253.9922 L40,268.9922 " fill="none" filter="url(#f102vn6mep8ala)" style="stroke: #A80036; stroke-width: 2.0;"/><text fill="#000000" font-family="sans-serif" font-size="14" lengthAdjust="spacingAndGlyphs" textLength="18" x="237" y="82.9951">TS</text><path d="M231,34 C231,24 249,24 249,24 C249,24 267,24 267,34 L267,60 C267,70 249,70 249,70 C249,70 231,70 231,60 L231,34 " fill="#FEFECE" filter="url(#f102vn6mep8ala)" style="stroke: #000000; stroke-width: 1.5;"/><path d="M231,34 C231,44 249,44 249,44 C249,44 267,44 267,34 " fill="none" style="stroke: #000000; stroke-width: 1.5;"/><text fill="#000000" font-family="sans-serif" font-size="14" lengthAdjust="spacingAndGlyphs" textLength="18" x="237" y="205.6904">TS</text><path d="M231,218.9922 C231,208.9922 249,208.9922 249,208.9922 C249,208.9922 267,208.9922 267,218.9922 L267,244.9922 C267,254.9922 249,254.9922 249,254.9922 C249,254.9922 231,254.9922 231,244.9922 L231,218.9922 " fill="#FEFECE" filter="url(#f102vn6mep8ala)" style="stroke: #000000; stroke-width: 1.5;"/><path d="M231,218.9922 C231,228.9922 249,228.9922 249,228.9922 C249,228.9922 267,228.9922 267,218.9922 " fill="none" style="stroke: #000000; stroke-width: 1.5;"/><text fill="#000000" font-family="sans-serif" font-size="14" lengthAdjust="spacingAndGlyphs" textLength="28" x="422" y="82.9951">Bob</text><ellipse cx="439" cy="13" fill="#FEFECE" filter="url(#f102vn6mep8ala)" rx="8" ry="8" style="stroke: #A80036; stroke-width: 2.0;"/><path d="M439,21 L439,48 M426,29 L452,29 M439,48 L426,63 M439,48 L452,63 " fill="none" filter="url(#f102vn6mep8ala)" style="stroke: #A80036; stroke-width: 2.0;"/><text fill="#000000" font-family="sans-serif" font-size="14" lengthAdjust="spacingAndGlyphs" textLength="28" x="422" y="205.6904">Bob</text><ellipse cx="439" cy="218.9922" fill="#FEFECE" filter="url(#f102vn6mep8ala)" rx="8" ry="8" style="stroke: #A80036; stroke-width: 2.0;"/><path d="M439,226.9922 L439,253.9922 M426,234.9922 L452,234.9922 M439,253.9922 L426,268.9922 M439,253.9922 L452,268.9922 " fill="none" filter="url(#f102vn6mep8ala)" style="stroke: #A80036; stroke-width: 2.0;"/><polygon fill="#A80036" points="260,113.4297,250,117.4297,260,121.4297,256,117.4297" style="stroke: #A80036; stroke-width: 1.0;"/><line style="stroke: #A80036; stroke-width: 1.0;" x1="254" x2="438" y1="117.4297" y2="117.4297"/><text fill="#000000" font-family="sans-serif" font-size="13" lengthAdjust="spacingAndGlyphs" textLength="166" x="266" y="112.3638">take("to: Bob, content: *")</text><polygon fill="#A80036" points="237,142.5625,247,146.5625,237,150.5625,241,146.5625" style="stroke: #A80036; stroke-width: 1.0;"/><line style="stroke: #A80036; stroke-width: 1.0;" x1="27" x2="243" y1="146.5625" y2="146.5625"/><text fill="#000000" font-family="sans-serif" font-size="13" lengthAdjust="spacingAndGlyphs" textLength="198" x="34" y="141.4966">write("to: Bob, content: Hello!")</text><polygon fill="#A80036" points="427,171.6953,437,175.6953,427,179.6953,431,175.6953" style="stroke: #A80036; stroke-width: 1.0;"/><line style="stroke: #A80036; stroke-width: 1.0; stroke-dasharray: 2.0,2.0;" x1="249" x2="433" y1="175.6953" y2="175.6953"/><text fill="#000000" font-family="sans-serif" font-size="13" lengthAdjust="spacingAndGlyphs" textLength="158" x="256" y="170.6294">"to: Bob, content: Hello!"</text><!--
@startuml
actor Alice

database TS

actor Bob

Bob -> TS: take("to: Bob, content: *") 

Alice -> TS: write("to: Bob, content: Hello!") 

TS - -> Bob: "to: Bob, content: Hello!"
@enduml

PlantUML version 1.2018.11(Sat Sep 22 16:43:53 UTC 2018)
(GPL source distribution)
Java Runtime: Java(TM) SE Runtime Environment
JVM: Java HotSpot(TM) 64-Bit Server VM
Java Version: 1.7.0_25-b15
Operating System: Linux
Default Encoding: UTF-8
Language: en
Country: US
--></g></svg>