<?xml version="1.0" encoding="UTF-8" standalone="no"?>
<svg xmlns="http://www.w3.org/2000/svg" xmlns:xlink="http://www.w3.org/1999/xlink" contentScriptType="application/ecmascript" contentStyleType="text/css" height="333px" preserveAspectRatio="none" style="width:853px;height:333px;" version="1.1" viewBox="0 0 853 333" width="853px" zoomAndPan="magnify"><defs><filter height="300%" id="f1mx2jxxtolbth" width="300%" x="-1" y="-1"><feGaussianBlur result="blurOut" stdDeviation="2.0"/><feColorMatrix in="blurOut" result="blurOut2" type="matrix" values="0 0 0 0 0 0 0 0 0 0 0 0 0 0 0 0 0 0 .4 0"/><feOffset dx="4.0" dy="4.0" in="blurOut2" result="blurOut3"/><feBlend in="SourceGraphic" in2="blurOut3" mode="normal"/></filter></defs><g><line style="stroke: #A80036; stroke-width: 1.0; stroke-dasharray: 5.0,5.0;" x1="43" x2="43" y1="65.2969" y2="260.0938"/><line style="stroke: #A80036; stroke-width: 1.0; stroke-dasharray: 5.0,5.0;" x1="335" x2="335" y1="65.2969" y2="260.0938"/><line style="stroke: #A80036; stroke-width: 1.0; stroke-dasharray: 5.0,5.0;" x1="587" x2="587" y1="65.2969" y2="260.0938"/><line style="stroke: #A80036; stroke-width: 1.0; stroke-dasharray: 5.0,5.0;" x1="693" x2="693" y1="65.2969" y2="260.0938"/><line style="stroke: #A80036; stroke-width: 1.0; stroke-dasharray: 5.0,5.0;" x1="799" x2="799" y1="65.2969" y2="260.0938"/><text fill="#000000" font-family="sans-serif" font-size="14" lengthAdjust="spacingAndGlyphs" textLength="64" x="8" y="61.9951">Publisher</text><ellipse cx="43" cy="33" fill="#FEFECE" filter="url(#f1mx2jxxtolbth)" rx="12" ry="12" style="stroke: #A80036; stroke-width: 2.0;"/><polygon fill="#A80036" points="39,21,45,16,43,21,45,26,39,21" style="stroke: #A80036; stroke-width: 1.0;"/><text fill="#000000" font-family="sans-serif" font-size="14" lengthAdjust="spacingAndGlyphs" textLength="64" x="8" y="272.0889">Publisher</text><ellipse cx="43" cy="291.3906" fill="#FEFECE" filter="url(#f1mx2jxxtolbth)" rx="12" ry="12" style="stroke: #A80036; stroke-width: 2.0;"/><polygon fill="#A80036" points="39,279.3906,45,274.3906,43,279.3906,45,284.3906,39,279.3906" style="stroke: #A80036; stroke-width: 1.0;"/><text fill="#000000" font-family="sans-serif" font-size="14" lengthAdjust="spacingAndGlyphs" textLength="18" x="323" y="61.9951">TS</text><path d="M317,13 C317,3 335,3 335,3 C335,3 353,3 353,13 L353,39 C353,49 335,49 335,49 C335,49 317,49 317,39 L317,13 " fill="#FEFECE" filter="url(#f1mx2jxxtolbth)" style="stroke: #000000; stroke-width: 1.5;"/><path d="M317,13 C317,23 335,23 335,23 C335,23 353,23 353,13 " fill="none" style="stroke: #000000; stroke-width: 1.5;"/><text fill="#000000" font-family="sans-serif" font-size="14" lengthAdjust="spacingAndGlyphs" textLength="18" x="323" y="272.0889">TS</text><path d="M317,285.3906 C317,275.3906 335,275.3906 335,275.3906 C335,275.3906 353,275.3906 353,285.3906 L353,311.3906 C353,321.3906 335,321.3906 335,321.3906 C335,321.3906 317,321.3906 317,311.3906 L317,285.3906 " fill="#FEFECE" filter="url(#f1mx2jxxtolbth)" style="stroke: #000000; stroke-width: 1.5;"/><path d="M317,285.3906 C317,295.3906 335,295.3906 335,295.3906 C335,295.3906 353,295.3906 353,285.3906 " fill="none" style="stroke: #000000; stroke-width: 1.5;"/><text fill="#000000" font-family="sans-serif" font-size="14" lengthAdjust="spacingAndGlyphs" textLength="90" x="539" y="61.9951">Subscriber_1</text><ellipse cx="587" cy="33" fill="#FEFECE" filter="url(#f1mx2jxxtolbth)" rx="12" ry="12" style="stroke: #A80036; stroke-width: 2.0;"/><polygon fill="#A80036" points="583,21,589,16,587,21,589,26,583,21" style="stroke: #A80036; stroke-width: 1.0;"/><text fill="#000000" font-family="sans-serif" font-size="14" lengthAdjust="spacingAndGlyphs" textLength="90" x="539" y="272.0889">Subscriber_1</text><ellipse cx="587" cy="291.3906" fill="#FEFECE" filter="url(#f1mx2jxxtolbth)" rx="12" ry="12" style="stroke: #A80036; stroke-width: 2.0;"/><polygon fill="#A80036" points="583,279.3906,589,274.3906,587,279.3906,589,284.3906,583,279.3906" style="stroke: #A80036; stroke-width: 1.0;"/><text fill="#000000" font-family="sans-serif" font-size="14" lengthAdjust="spacingAndGlyphs" textLength="90" x="645" y="61.9951">Subscriber_2</text><ellipse cx="693" cy="33" fill="#FEFECE" filter="url(#f1mx2jxxtolbth)" rx="12" ry="12" style="stroke: #A80036; stroke-width: 2.0;"/><polygon fill="#A80036" points="689,21,695,16,693,21,695,26,689,21" style="stroke: #A80036; stroke-width: 1.0;"/><text fill="#000000" font-family="sans-serif" font-size="14" lengthAdjust="spacingAndGlyphs" textLength="90" x="645" y="272.0889">Subscriber_2</text><ellipse cx="693" cy="291.3906" fill="#FEFECE" filter="url(#f1mx2jxxtolbth)" rx="12" ry="12" style="stroke: #A80036; stroke-width: 2.0;"/><polygon fill="#A80036" points="689,279.3906,695,274.3906,693,279.3906,695,284.3906,689,279.3906" style="stroke: #A80036; stroke-width: 1.0;"/><text fill="#000000" font-family="sans-serif" font-size="14" lengthAdjust="spacingAndGlyphs" textLength="90" x="751" y="61.9951">Subscriber_3</text><ellipse cx="799" cy="33" fill="#FEFECE" filter="url(#f1mx2jxxtolbth)" rx="12" ry="12" style="stroke: #A80036; stroke-width: 2.0;"/><polygon fill="#A80036" points="795,21,801,16,799,21,801,26,795,21" style="stroke: #A80036; stroke-width: 1.0;"/><text fill="#000000" font-family="sans-serif" font-size="14" lengthAdjust="spacingAndGlyphs" textLength="90" x="751" y="272.0889">Subscriber_3</text><ellipse cx="799" cy="291.3906" fill="#FEFECE" filter="url(#f1mx2jxxtolbth)" rx="12" ry="12" style="stroke: #A80036; stroke-width: 2.0;"/><polygon fill="#A80036" points="795,279.3906,801,274.3906,799,279.3906,801,284.3906,795,279.3906" style="stroke: #A80036; stroke-width: 1.0;"/><polygon fill="#A80036" points="346,92.4297,336,96.4297,346,100.4297,342,96.4297" style="stroke: #A80036; stroke-width: 1.0;"/><line style="stroke: #A80036; stroke-width: 1.0;" x1="340" x2="586" y1="96.4297" y2="96.4297"/><text fill="#000000" font-family="sans-serif" font-size="13" lengthAdjust="spacingAndGlyphs" textLength="166" x="352" y="91.3638">read("topic: cars, msg: *")</text><polygon fill="#A80036" points="346,121.5625,336,125.5625,346,129.5625,342,125.5625" style="stroke: #A80036; stroke-width: 1.0;"/><line style="stroke: #A80036; stroke-width: 1.0;" x1="340" x2="692" y1="125.5625" y2="125.5625"/><text fill="#000000" font-family="sans-serif" font-size="13" lengthAdjust="spacingAndGlyphs" textLength="166" x="352" y="120.4966">read("topic: cars, msg: *")</text><polygon fill="#A80036" points="346,150.6953,336,154.6953,346,158.6953,342,154.6953" style="stroke: #A80036; stroke-width: 1.0;"/><line style="stroke: #A80036; stroke-width: 1.0;" x1="340" x2="798" y1="154.6953" y2="154.6953"/><text fill="#000000" font-family="sans-serif" font-size="13" lengthAdjust="spacingAndGlyphs" textLength="217" x="352" y="149.6294">read("topic: videogames, msg: *")</text><polygon fill="#A80036" points="323,179.8281,333,183.8281,323,187.8281,327,183.8281" style="stroke: #A80036; stroke-width: 1.0;"/><line style="stroke: #A80036; stroke-width: 1.0;" x1="43" x2="329" y1="183.8281" y2="183.8281"/><text fill="#000000" font-family="sans-serif" font-size="13" lengthAdjust="spacingAndGlyphs" textLength="268" x="50" y="178.7622">write("topic: cars, msg: New Tesla is out!")</text><polygon fill="#A80036" points="575,208.9609,585,212.9609,575,216.9609,579,212.9609" style="stroke: #A80036; stroke-width: 1.0;"/><line style="stroke: #A80036; stroke-width: 1.0; stroke-dasharray: 2.0,2.0;" x1="335" x2="581" y1="212.9609" y2="212.9609"/><text fill="#000000" font-family="sans-serif" font-size="13" lengthAdjust="spacingAndGlyphs" textLength="228" x="342" y="207.895">"topic: cars, msg: New Tesla is out!"</text><polygon fill="#A80036" points="681,238.0938,691,242.0938,681,246.0938,685,242.0938" style="stroke: #A80036; stroke-width: 1.0;"/><line style="stroke: #A80036; stroke-width: 1.0; stroke-dasharray: 2.0,2.0;" x1="335" x2="687" y1="242.0938" y2="242.0938"/><text fill="#000000" font-family="sans-serif" font-size="13" lengthAdjust="spacingAndGlyphs" textLength="228" x="342" y="237.0278">"topic: cars, msg: New Tesla is out!"</text><!--
@startuml
control Publisher

database TS

control Subscriber_1
control Subscriber_2
control Subscriber_3

Subscriber_1 -> TS: read("topic: cars, msg: *") 
Subscriber_2 -> TS: read("topic: cars, msg: *") 
Subscriber_3 -> TS: read("topic: videogames, msg: *") 

Publisher -> TS: write("topic: cars, msg: New Tesla is out!") 

TS - -> Subscriber_1: "topic: cars, msg: New Tesla is out!"
TS - -> Subscriber_2: "topic: cars, msg: New Tesla is out!"
@enduml

PlantUML version 1.2018.11(Sat Sep 22 16:43:53 UTC 2018)
(GPL source distribution)
Java Runtime: Java(TM) SE Runtime Environment
JVM: Java HotSpot(TM) 64-Bit Server VM
Java Version: 1.7.0_25-b15
Operating System: Linux
Default Encoding: UTF-8
Language: en
Country: US
--></g></svg>