<?xml version="1.0" encoding="UTF-8" standalone="no"?>
<svg xmlns="http://www.w3.org/2000/svg" xmlns:xlink="http://www.w3.org/1999/xlink" contentScriptType="application/ecmascript" contentStyleType="text/css" height="333px" preserveAspectRatio="none" style="width:412px;height:333px;" version="1.1" viewBox="0 0 412 333" width="412px" zoomAndPan="magnify"><defs><filter height="300%" id="f1c47hnwex1xq6" width="300%" x="-1" y="-1"><feGaussianBlur result="blurOut" stdDeviation="2.0"/><feColorMatrix in="blurOut" result="blurOut2" type="matrix" values="0 0 0 0 0 0 0 0 0 0 0 0 0 0 0 0 0 0 .4 0"/><feOffset dx="4.0" dy="4.0" in="blurOut2" result="blurOut3"/><feBlend in="SourceGraphic" in2="blurOut3" mode="normal"/></filter></defs><g><line style="stroke: #A80036; stroke-width: 1.0; stroke-dasharray: 5.0,5.0;" x1="30" x2="30" y1="65.2969" y2="260.0938"/><line style="stroke: #A80036; stroke-width: 1.0; stroke-dasharray: 5.0,5.0;" x1="206.5" x2="206.5" y1="65.2969" y2="260.0938"/><line style="stroke: #A80036; stroke-width: 1.0; stroke-dasharray: 5.0,5.0;" x1="378.5" x2="378.5" y1="65.2969" y2="260.0938"/><text fill="#000000" font-family="sans-serif" font-size="14" lengthAdjust="spacingAndGlyphs" textLength="39" x="8" y="61.9951">Client</text><ellipse cx="30.5" cy="33" fill="#FEFECE" filter="url(#f1c47hnwex1xq6)" rx="12" ry="12" style="stroke: #A80036; stroke-width: 2.0;"/><polygon fill="#A80036" points="26.5,21,32.5,16,30.5,21,32.5,26,26.5,21" style="stroke: #A80036; stroke-width: 1.0;"/><text fill="#000000" font-family="sans-serif" font-size="14" lengthAdjust="spacingAndGlyphs" textLength="39" x="8" y="272.0889">Client</text><ellipse cx="30.5" cy="291.3906" fill="#FEFECE" filter="url(#f1c47hnwex1xq6)" rx="12" ry="12" style="stroke: #A80036; stroke-width: 2.0;"/><polygon fill="#A80036" points="26.5,279.3906,32.5,274.3906,30.5,279.3906,32.5,284.3906,26.5,279.3906" style="stroke: #A80036; stroke-width: 1.0;"/><text fill="#000000" font-family="sans-serif" font-size="14" lengthAdjust="spacingAndGlyphs" textLength="18" x="194.5" y="61.9951">TS</text><path d="M188.5,13 C188.5,3 206.5,3 206.5,3 C206.5,3 224.5,3 224.5,13 L224.5,39 C224.5,49 206.5,49 206.5,49 C206.5,49 188.5,49 188.5,39 L188.5,13 " fill="#FEFECE" filter="url(#f1c47hnwex1xq6)" style="stroke: #000000; stroke-width: 1.5;"/><path d="M188.5,13 C188.5,23 206.5,23 206.5,23 C206.5,23 224.5,23 224.5,13 " fill="none" style="stroke: #000000; stroke-width: 1.5;"/><text fill="#000000" font-family="sans-serif" font-size="14" lengthAdjust="spacingAndGlyphs" textLength="18" x="194.5" y="272.0889">TS</text><path d="M188.5,285.3906 C188.5,275.3906 206.5,275.3906 206.5,275.3906 C206.5,275.3906 224.5,275.3906 224.5,285.3906 L224.5,311.3906 C224.5,321.3906 206.5,321.3906 206.5,321.3906 C206.5,321.3906 188.5,321.3906 188.5,311.3906 L188.5,285.3906 " fill="#FEFECE" filter="url(#f1c47hnwex1xq6)" style="stroke: #000000; stroke-width: 1.5;"/><path d="M188.5,285.3906 C188.5,295.3906 206.5,295.3906 206.5,295.3906 C206.5,295.3906 224.5,295.3906 224.5,285.3906 " fill="none" style="stroke: #000000; stroke-width: 1.5;"/><text fill="#000000" font-family="sans-serif" font-size="14" lengthAdjust="spacingAndGlyphs" textLength="50" x="350.5" y="61.9951">Service</text><ellipse cx="378.5" cy="33" fill="#FEFECE" filter="url(#f1c47hnwex1xq6)" rx="12" ry="12" style="stroke: #A80036; stroke-width: 2.0;"/><polygon fill="#A80036" points="374.5,21,380.5,16,378.5,21,380.5,26,374.5,21" style="stroke: #A80036; stroke-width: 1.0;"/><text fill="#000000" font-family="sans-serif" font-size="14" lengthAdjust="spacingAndGlyphs" textLength="50" x="350.5" y="272.0889">Service</text><ellipse cx="378.5" cy="291.3906" fill="#FEFECE" filter="url(#f1c47hnwex1xq6)" rx="12" ry="12" style="stroke: #A80036; stroke-width: 2.0;"/><polygon fill="#A80036" points="374.5,279.3906,380.5,274.3906,378.5,279.3906,380.5,284.3906,374.5,279.3906" style="stroke: #A80036; stroke-width: 1.0;"/><polygon fill="#A80036" points="217.5,92.4297,207.5,96.4297,217.5,100.4297,213.5,96.4297" style="stroke: #A80036; stroke-width: 1.0;"/><line style="stroke: #A80036; stroke-width: 1.0;" x1="211.5" x2="377.5" y1="96.4297" y2="96.4297"/><text fill="#000000" font-family="sans-serif" font-size="13" lengthAdjust="spacingAndGlyphs" textLength="148" x="223.5" y="91.3638">take("f: sum, x: *, y: *")</text><polygon fill="#A80036" points="194.5,121.5625,204.5,125.5625,194.5,129.5625,198.5,125.5625" style="stroke: #A80036; stroke-width: 1.0;"/><line style="stroke: #A80036; stroke-width: 1.0;" x1="30.5" x2="200.5" y1="125.5625" y2="125.5625"/><text fill="#000000" font-family="sans-serif" font-size="13" lengthAdjust="spacingAndGlyphs" textLength="152" x="37.5" y="120.4966">write("f: sum, x: 1, y: 2")</text><polygon fill="#A80036" points="366.5,150.6953,376.5,154.6953,366.5,158.6953,370.5,154.6953" style="stroke: #A80036; stroke-width: 1.0;"/><line style="stroke: #A80036; stroke-width: 1.0; stroke-dasharray: 2.0,2.0;" x1="206.5" x2="372.5" y1="154.6953" y2="154.6953"/><text fill="#000000" font-family="sans-serif" font-size="13" lengthAdjust="spacingAndGlyphs" textLength="112" x="213.5" y="149.6294">"f: sum, x: 1, y: 2"</text><polygon fill="#A80036" points="194.5,179.8281,204.5,183.8281,194.5,187.8281,198.5,183.8281" style="stroke: #A80036; stroke-width: 1.0;"/><line style="stroke: #A80036; stroke-width: 1.0;" x1="30.5" x2="200.5" y1="183.8281" y2="183.8281"/><text fill="#000000" font-family="sans-serif" font-size="13" lengthAdjust="spacingAndGlyphs" textLength="99" x="37.5" y="178.7622">take("result: *")</text><polygon fill="#A80036" points="217.5,208.9609,207.5,212.9609,217.5,216.9609,213.5,212.9609" style="stroke: #A80036; stroke-width: 1.0;"/><line style="stroke: #A80036; stroke-width: 1.0;" x1="211.5" x2="377.5" y1="212.9609" y2="212.9609"/><text fill="#000000" font-family="sans-serif" font-size="13" lengthAdjust="spacingAndGlyphs" textLength="102" x="223.5" y="207.895">write("result: 3")</text><polygon fill="#A80036" points="41.5,238.0938,31.5,242.0938,41.5,246.0938,37.5,242.0938" style="stroke: #A80036; stroke-width: 1.0;"/><line style="stroke: #A80036; stroke-width: 1.0; stroke-dasharray: 2.0,2.0;" x1="35.5" x2="205.5" y1="242.0938" y2="242.0938"/><text fill="#000000" font-family="sans-serif" font-size="13" lengthAdjust="spacingAndGlyphs" textLength="62" x="47.5" y="237.0278">"result: 3"</text><!--
@startuml
control Client

database TS

control Service

Service -> TS: take("f: sum, x: *, y: *") 

Client -> TS: write("f: sum, x: 1, y: 2") 

TS - -> Service: "f: sum, x: 1, y: 2"

Client -> TS: take("result: *") 

Service -> TS: write("result: 3") 

TS - -> Client: "result: 3"
@enduml

PlantUML version 1.2018.11(Sat Sep 22 16:43:53 UTC 2018)
(GPL source distribution)
Java Runtime: Java(TM) SE Runtime Environment
JVM: Java HotSpot(TM) 64-Bit Server VM
Java Version: 1.7.0_25-b15
Operating System: Linux
Default Encoding: UTF-8
Language: en
Country: US
--></g></svg>